<svg width="50" height="50" viewBox="0 0 50 50" fill="none" xmlns="http://www.w3.org/2000/svg">
<path d="M25 0L46.6506 12.5V37.5L25 50L3.34937 37.5V12.5L25 0Z" fill="#782A79"/>
<path d="M10.32 30.42C10.32 31.02 10.1267 31.48 9.74 31.8C9.36667 32.1067 8.94 32.26 8.46 32.26C7.98 32.26 7.54667 32.1067 7.16 31.8C6.78667 31.48 6.6 31.02 6.6 30.42C6.6 29.82 6.78667 29.3667 7.16 29.06C7.54667 28.74 7.98 28.58 8.46 28.58C8.94 28.58 9.36667 28.74 9.74 29.06C10.1267 29.3667 10.32 29.82 10.32 30.42ZM12.3219 21.84C12.8285 21.6933 13.4819 21.56 14.2819 21.44C15.0819 21.3067 15.9219 21.24 16.8019 21.24C17.6952 21.24 18.4352 21.36 19.0219 21.6C19.6219 21.8267 20.0952 22.1533 20.4419 22.58C20.7885 23.0067 21.0352 23.5133 21.1819 24.1C21.3285 24.6867 21.4019 25.34 21.4019 26.06V32H18.4219V26.42C18.4219 25.46 18.2952 24.78 18.0419 24.38C17.7885 23.98 17.3152 23.78 16.6219 23.78C16.4085 23.78 16.1819 23.7933 15.9419 23.82C15.7019 23.8333 15.4885 23.8533 15.3019 23.88V32H12.3219V21.84ZM23.5992 26.82C23.5992 25.8867 23.7392 25.0733 24.0192 24.38C24.3126 23.6733 24.6926 23.0867 25.1592 22.62C25.6259 22.1533 26.1592 21.8 26.7592 21.56C27.3726 21.32 27.9992 21.2 28.6392 21.2C30.1326 21.2 31.3126 21.66 32.1792 22.58C33.0459 23.4867 33.4792 24.8267 33.4792 26.6C33.4792 26.7733 33.4726 26.9667 33.4592 27.18C33.4459 27.38 33.4326 27.56 33.4192 27.72H26.6592C26.7259 28.3333 27.0126 28.82 27.5192 29.18C28.0259 29.54 28.7059 29.72 29.5592 29.72C30.1059 29.72 30.6392 29.6733 31.1592 29.58C31.6926 29.4733 32.1259 29.3467 32.4592 29.2L32.8592 31.62C32.6992 31.7 32.4859 31.78 32.2192 31.86C31.9526 31.94 31.6526 32.0067 31.3192 32.06C30.9992 32.1267 30.6526 32.18 30.2792 32.22C29.9059 32.26 29.5326 32.28 29.1592 32.28C28.2126 32.28 27.3859 32.14 26.6792 31.86C25.9859 31.58 25.4059 31.2 24.9392 30.72C24.4859 30.2267 24.1459 29.6467 23.9192 28.98C23.7059 28.3133 23.5992 27.5933 23.5992 26.82ZM30.5992 25.68C30.5859 25.4267 30.5392 25.18 30.4592 24.94C30.3926 24.7 30.2792 24.4867 30.1192 24.3C29.9726 24.1133 29.7792 23.96 29.5392 23.84C29.3126 23.72 29.0259 23.66 28.6792 23.66C28.3459 23.66 28.0592 23.72 27.8192 23.84C27.5792 23.9467 27.3792 24.0933 27.2192 24.28C27.0592 24.4667 26.9326 24.6867 26.8392 24.94C26.7592 25.18 26.6992 25.4267 26.6592 25.68H30.5992ZM35.6789 18.86L38.6589 18.38V21.48H42.2389V23.96H38.6589V27.66C38.6589 28.2867 38.7656 28.7867 38.9789 29.16C39.2056 29.5333 39.6522 29.72 40.3189 29.72C40.6389 29.72 40.9656 29.6933 41.2989 29.64C41.6456 29.5733 41.9589 29.4867 42.2389 29.38L42.6589 31.7C42.2989 31.8467 41.8989 31.9733 41.4589 32.08C41.0189 32.1867 40.4789 32.24 39.8389 32.24C39.0256 32.24 38.3522 32.1333 37.8189 31.92C37.2856 31.6933 36.8589 31.3867 36.5389 31C36.2189 30.6 35.9922 30.12 35.8589 29.56C35.7389 29 35.6789 28.38 35.6789 27.7V18.86Z" fill="white"/>
</svg>
