<svg width="41" height="41" fill="none" xmlns="http://www.w3.org/2000/svg"><g clip-path="url(#a)"><path d="M15.788 5.249H4.825c-1.068.002-2.09.354-2.845.976C1.225 6.848.8 7.692.8 8.573c-.03.853.352 1.68 1.062 2.302.71.621 1.69.985 2.725 1.012H15.906l-.118-6.638Z" fill="#073042"/><path d="M40.76 34.813H4.813c-1.064-.005-2.082-.357-2.834-.977-.75-.621-1.174-1.462-1.178-2.339V8.554c-.003.437.099.87.3 1.275.2.404.495.772.868 1.083.373.31.817.557 1.306.727a4.79 4.79 0 0 0 1.543.26c.09 0 .18 0 .268-.007h29.817s5.859-.42 5.859 3.222v19.699Z" fill="#4285F4"/><path d="M21.777 18.856a2.545 2.545 0 0 0-1.31.376 1.872 1.872 0 0 0-.786.942 1.53 1.53 0 0 0 .044 1.143c.162.368.462.683.857.9a2.59 2.59 0 0 0 1.337.307c.474-.018.928-.16 1.297-.406.37-.245.634-.582.755-.96.12-.378.092-.778-.082-1.142a1.969 1.969 0 0 0-.837-.85 2.597 2.597 0 0 0-1.274-.31Z" fill="#000"/><path d="M23.991 23.062c.601-.37 1.047-.887 1.276-1.476.23-.59.23-1.223.003-1.813-.228-.59-.673-1.106-1.273-1.478a4.132 4.132 0 0 0-2.076-.598h.117c.212-.017.426-.017.638 0v-1.846a.505.505 0 0 0-.083-.3.654.654 0 0 0-.256-.226.821.821 0 0 0-.716 0 .653.653 0 0 0-.255.225.504.504 0 0 0-.083.3v1.88a3.99 3.99 0 0 0-1.892.754c-.527.4-.898.919-1.068 1.492-.17.574-.13 1.175.114 1.73.244.555.681 1.038 1.258 1.388L13.067 34.77h4.323l3.056-5.366c.13-.222.334-.409.587-.54.254-.131.547-.2.846-.2.298 0 .59.069.84.2.252.13.453.318.58.54l3.15 5.366h4.377l-6.835-11.708Zm-2.214-.526a2.603 2.603 0 0 1-1.252-.31 1.985 1.985 0 0 1-.832-.83 1.553 1.553 0 0 1-.13-1.072c.087-.36.301-.691.616-.95.315-.26.716-.437 1.153-.508.437-.072.89-.034 1.301.107.411.141.762.38 1.009.686.246.305.376.665.375 1.032 0 .489-.236.958-.656 1.305-.42.346-.99.54-1.584.54Z" fill="#3870B2"/><path d="M13.419 6.88h15.376V9.21H13.42V6.88Z" fill="#fff"/><path d="M20.58 18.856a2.528 2.528 0 0 1 1.407.423c.395.271.665.647.762 1.063.097.416.017.847-.228 1.22-.244.373-.638.665-1.114.825-.476.16-1.004.18-1.496.056s-.916-.385-1.2-.738a1.593 1.593 0 0 1-.362-1.197c.051-.422.278-.816.642-1.116.424-.343.995-.536 1.59-.536Zm.88-1.073v-1.934a.506.506 0 0 0-.083-.3.653.653 0 0 0-.255-.225.82.82 0 0 0-.359-.08.82.82 0 0 0-.358.08.656.656 0 0 0-.255.225.506.506 0 0 0-.083.3v1.879a3.99 3.99 0 0 0-1.892.755c-.527.4-.898.918-1.068 1.492-.17.573-.13 1.175.114 1.73.244.555.682 1.037 1.258 1.388L10.164 37.85a1.39 1.39 0 0 0-.199.837c.025.288.143.566.341.805.202.236.475.425.793.547.317.123.668.174 1.018.15.349-.028.683-.132.967-.302.284-.17.507-.4.647-.664l5.542-9.819a1.45 1.45 0 0 1 .589-.538c.253-.131.545-.2.844-.202.298 0 .59.069.84.2.252.131.453.319.58.54l5.689 9.765c.113.192.27.364.463.505.194.141.419.25.663.32a2.363 2.363 0 0 0 1.504-.073c.232-.093.44-.223.612-.383.172-.159.303-.344.388-.545a1.362 1.362 0 0 0-.089-1.24l-8.564-14.69c.527-.348.928-.808 1.159-1.33a2.52 2.52 0 0 0 .146-1.633 2.877 2.877 0 0 0-.91-1.456 3.865 3.865 0 0 0-1.697-.85" fill="#073042"/><path d="M26.569 8.93a1.211 1.211 0 0 1-.59-.138.925.925 0 0 1-.393-.386.72.72 0 0 1-.062-.502.826.826 0 0 1 .29-.445c.148-.12.335-.202.539-.235.203-.033.414-.015.606.05s.356.176.472.318a.767.767 0 0 1 .18.48.729.729 0 0 1-.08.328.867.867 0 0 1-.226.278c-.096.08-.211.143-.338.186a1.236 1.236 0 0 1-.398.065Zm-11.575 0a1.208 1.208 0 0 1-.585-.142.92.92 0 0 1-.388-.387.72.72 0 0 1-.06-.5.827.827 0 0 1 .29-.442c.088-.088.196-.161.318-.215a1.27 1.27 0 0 1 .803-.065c.133.033.257.087.364.16a.931.931 0 0 1 .261.262.725.725 0 0 1 .08.662.834.834 0 0 1-.194.3.973.973 0 0 1-.147.12c-.097.08-.213.143-.34.185a1.222 1.222 0 0 1-.402.061Zm11.953-5.204L29.03.745a.306.306 0 0 0 .008-.254.39.39 0 0 0-.195-.197.524.524 0 0 0-.304-.044.468.468 0 0 0-.265.13l-2.109 3.023a15.534 15.534 0 0 0-5.376-.949c-1.853 0-3.685.324-5.376.95L13.29.376a.413.413 0 0 0-.16-.132.517.517 0 0 0-.219-.05.559.559 0 0 0-.217.053.455.455 0 0 0-.164.129.318.318 0 0 0-.06.182c0 .064.021.127.06.183l2.097 2.98c-1.806.817-3.337 1.991-4.454 3.417-1.117 1.427-1.785 3.06-1.944 4.753h25.13c-.161-1.693-.832-3.327-1.951-4.752-1.12-1.426-2.652-2.6-4.46-3.414Z" fill="#3DDC84"/><path d="M37.154 18.255h-1.656a.234.234 0 0 0-.147.05.158.158 0 0 0-.062.122v21.515c0 .044.02.086.057.118a.229.229 0 0 0 .139.053h1.705c.958-.002 1.875-.317 2.551-.875.676-.559 1.056-1.316 1.056-2.105V15.272c0 .79-.38 1.548-1.06 2.107-.677.56-1.597.873-2.556.873l-.027.003Z" fill="#073042"/></g><defs><clipPath id="a"><path fill="#fff" transform="translate(.8 .195)" d="M0 0h40v40H0z"/></clipPath></defs></svg>
