<svg width="50" height="50" viewBox="0 0 50 50" fill="none" xmlns="http://www.w3.org/2000/svg">
<path d="M25 0L46.6506 12.5V37.5L25 50L3.34937 37.5V12.5L25 0Z" fill="white"/>
<g clip-path="url(#clip0_34_1711)">
<path d="M21.2408 13.7905H13.0188C12.2178 13.7924 11.4505 14.0558 10.8847 14.5231C10.3189 14.9903 10.0008 15.6232 10 16.2833C9.97749 16.9231 10.2639 17.5441 10.7963 18.0101C11.3287 18.4761 12.0637 18.749 12.8399 18.7689H12.9293H21.3288L21.2408 13.7905Z" fill="#073042"/>
<path d="M39.9706 35.9636H13.0092C12.2112 35.9596 11.4474 35.6961 10.8838 35.2304C10.3203 34.7647 10.0027 34.1345 9.99997 33.4768V16.2695C9.99794 16.5972 10.0743 16.922 10.2246 17.2255C10.3749 17.5289 10.5963 17.8049 10.8761 18.0378C11.1559 18.2707 11.4886 18.4559 11.8552 18.5828C12.2218 18.7097 12.6152 18.7758 13.0129 18.7774C13.0803 18.7774 13.147 18.7774 13.2137 18.7725H35.5767C35.5767 18.7725 39.9706 18.4584 39.9706 21.1892V35.9636Z" fill="#4285F4"/>
<path d="M25.7331 23.9956C25.3773 24.0009 25.033 24.0997 24.7501 24.2775C24.4673 24.4554 24.2608 24.7031 24.1608 24.9845C24.0607 25.2659 24.0723 25.5663 24.1938 25.8418C24.3154 26.1174 24.5405 26.3538 24.8365 26.5165C25.1325 26.6793 25.4838 26.7598 25.8392 26.7465C26.1946 26.7332 26.5355 26.6266 26.8124 26.4424C27.0892 26.2582 27.2873 26.006 27.378 25.7224C27.4687 25.4389 27.4472 25.1389 27.3165 24.8662C27.1903 24.6061 26.9715 24.3837 26.6888 24.2282C26.4061 24.0728 26.0729 23.9917 25.7331 23.9956Z" fill="black"/>
<path d="M27.3935 27.1505C27.8442 26.8723 28.1786 26.4853 28.3504 26.0433C28.5222 25.6013 28.5228 25.1262 28.3522 24.6839C28.1815 24.2416 27.848 23.854 27.398 23.575C26.948 23.296 26.4038 23.1393 25.8408 23.1268H25.9288C26.0877 23.1141 26.2478 23.1141 26.4068 23.1268V21.742C26.4108 21.6637 26.3894 21.5859 26.3448 21.5167C26.3002 21.4474 26.2341 21.3892 26.1531 21.3481C26.0718 21.3084 25.979 21.2874 25.8844 21.2874C25.7899 21.2874 25.6971 21.3084 25.6158 21.3481C25.5348 21.3892 25.4687 21.4474 25.4241 21.5167C25.3795 21.5859 25.3581 21.6637 25.3621 21.742V23.1509C24.8318 23.2202 24.3381 23.4171 23.9431 23.717C23.5481 24.0168 23.2694 24.4062 23.1421 24.8362C23.0149 25.2661 23.0446 25.7175 23.2276 26.1336C23.4107 26.5497 23.7388 26.9119 24.1709 27.1747L19.2 35.9315H22.4423L24.7346 31.9071C24.8322 31.7406 24.9848 31.6002 25.1749 31.5019C25.365 31.4037 25.5849 31.3517 25.8093 31.3519C26.0324 31.3514 26.2511 31.4034 26.4396 31.5018C26.6282 31.6001 26.7788 31.7407 26.8737 31.9071L29.2364 35.9315H32.5198L27.3935 27.1505ZM25.7331 26.756C25.399 26.7571 25.0722 26.6764 24.7939 26.5241C24.5156 26.3718 24.2985 26.1548 24.17 25.9007C24.0416 25.6466 24.0077 25.3667 24.0725 25.0967C24.1374 24.8266 24.2981 24.5785 24.5343 24.3838C24.7705 24.1892 25.0715 24.0567 25.3992 24.0033C25.7268 23.9498 26.0664 23.9778 26.3747 24.0837C26.6831 24.1895 26.9464 24.3684 27.1311 24.5978C27.3159 24.8271 27.4138 25.0966 27.4125 25.3719C27.4125 25.739 27.2356 26.091 26.9206 26.3506C26.6057 26.6102 26.1785 26.756 25.7331 26.756Z" fill="#3870B2"/>
<path d="M19.4639 15.0146H30.9965V16.7606H19.4639V15.0146Z" fill="white"/>
<path d="M24.8351 23.9955C25.2207 23.9979 25.5935 24.1102 25.8901 24.3135C26.1866 24.5167 26.3886 24.7983 26.4617 25.1105C26.5348 25.4226 26.4745 25.7459 26.2911 26.0255C26.1076 26.3051 25.8124 26.5238 25.4554 26.6442C25.0985 26.7647 24.702 26.7796 24.3333 26.6864C23.9646 26.5932 23.6464 26.3976 23.4328 26.1329C23.2193 25.8682 23.1235 25.5508 23.1618 25.2345C23.2002 24.9182 23.3702 24.6226 23.6431 24.3979C23.9613 24.1405 24.3892 23.996 24.8351 23.9955ZM25.4948 23.1908V21.7408C25.4988 21.6625 25.4774 21.5847 25.4329 21.5155C25.3883 21.4462 25.3221 21.388 25.2412 21.3469C25.1598 21.3071 25.067 21.2862 24.9725 21.2862C24.878 21.2862 24.7852 21.3071 24.7038 21.3469C24.623 21.3881 24.5569 21.4463 24.5124 21.5155C24.4678 21.5848 24.4463 21.6625 24.4502 21.7408V23.1497C23.9198 23.219 23.4261 23.4159 23.0311 23.7158C22.6361 24.0156 22.3575 24.405 22.2302 24.8349C22.1029 25.2649 22.1327 25.7163 22.3157 26.1324C22.4987 26.5484 22.8269 26.9106 23.259 27.1735L17.0228 38.2412C16.9065 38.4359 16.8551 38.6525 16.8739 38.8688C16.8927 39.0852 16.9811 39.2936 17.1298 39.4725C17.281 39.6498 17.4858 39.7914 17.724 39.8832C17.9622 39.975 18.2254 40.0138 18.4874 39.9957C18.7494 39.9749 18.9998 39.8967 19.2128 39.7692C19.4257 39.6417 19.5934 39.4696 19.6985 39.2707L23.855 31.9071C23.9534 31.7412 24.1062 31.6012 24.2961 31.5031C24.4861 31.405 24.7055 31.3526 24.9296 31.3519C25.1528 31.3514 25.3714 31.4034 25.5599 31.5018C25.7485 31.6001 25.8991 31.7407 25.994 31.9071L30.2612 39.2309C30.3458 39.3746 30.464 39.5032 30.6089 39.6093C30.7538 39.7154 30.9227 39.7969 31.1058 39.8492C31.2889 39.9015 31.4828 39.9236 31.6763 39.9142C31.8698 39.9047 32.0591 39.864 32.2335 39.7943C32.4079 39.7245 32.5639 39.6271 32.6927 39.5077C32.8214 39.3883 32.9203 39.2491 32.9838 39.0982C33.0473 38.9472 33.0741 38.7875 33.0626 38.628C33.0512 38.4685 33.0017 38.3125 32.9171 38.1687L26.494 27.1505C26.8895 26.8904 27.1902 26.5452 27.3629 26.1532C27.5355 25.7611 27.5734 25.3374 27.4724 24.9287C27.3715 24.52 27.1355 24.1422 26.7905 23.8371C26.4456 23.5319 26.005 23.3112 25.5175 23.1992" fill="#073042"/>
<path d="M29.3266 16.551C29.1701 16.5539 29.0161 16.518 28.8847 16.4479C28.7533 16.3778 28.6504 16.2768 28.5894 16.158C28.5285 16.0392 28.5122 15.9081 28.5427 15.7815C28.5732 15.655 28.6491 15.5389 28.7606 15.4484C28.8713 15.3581 29.0118 15.2968 29.1645 15.2721C29.3172 15.2473 29.4754 15.2603 29.6193 15.3093C29.7631 15.3583 29.8862 15.4412 29.9732 15.5477C30.0601 15.6541 30.107 15.7793 30.108 15.9076C30.108 15.9921 30.0878 16.0758 30.0485 16.1539C30.0092 16.232 29.9517 16.303 29.8791 16.3628C29.8065 16.4225 29.7204 16.4699 29.6256 16.5022C29.5307 16.5345 29.4291 16.5511 29.3266 16.551ZM20.6456 16.551C20.4899 16.5524 20.3372 16.5154 20.2071 16.4448C20.0771 16.3741 19.9756 16.2731 19.9157 16.1546C19.8559 16.0361 19.8403 15.9056 19.8711 15.7797C19.9019 15.6539 19.9776 15.5385 20.0885 15.4484C20.1544 15.3822 20.2354 15.3273 20.327 15.2869C20.4187 15.2465 20.519 15.2214 20.6224 15.213C20.7258 15.2046 20.8302 15.213 20.9297 15.2379C21.0291 15.2627 21.1217 15.3035 21.202 15.3578C21.2823 15.4121 21.3489 15.4789 21.3979 15.5544C21.4469 15.6299 21.4774 15.7126 21.4876 15.7979C21.4978 15.8831 21.4875 15.9691 21.4574 16.0511C21.4273 16.133 21.3778 16.2093 21.3119 16.2755C21.2791 16.3087 21.2422 16.339 21.202 16.3661C21.129 16.426 21.0421 16.4733 20.9465 16.505C20.8509 16.5368 20.7486 16.5524 20.6456 16.551ZM29.6103 12.6481L31.1724 10.4126C31.202 10.3518 31.2041 10.2842 31.1783 10.2222C31.1526 10.1602 31.1007 10.1079 31.0321 10.0747C30.9634 10.0416 30.8827 10.0299 30.8044 10.0416C30.7262 10.0534 30.6557 10.088 30.6058 10.139L29.0238 12.4064C27.7559 11.9371 26.3818 11.6945 24.9919 11.6945C23.6021 11.6945 22.228 11.9371 20.9601 12.4064L19.3664 10.1365C19.3375 10.0955 19.2961 10.0613 19.2464 10.0374C19.1967 10.0135 19.1403 10.0006 19.0827 10C19.0253 10.0023 18.9694 10.0159 18.9197 10.0397C18.8699 10.0635 18.8278 10.0967 18.7968 10.1365C18.7676 10.1781 18.7523 10.2253 18.7523 10.2734C18.7523 10.3214 18.7676 10.3686 18.7968 10.4102L20.3692 12.6457C19.0147 13.2579 17.8667 14.1387 17.029 15.2084C16.1913 16.2782 15.6903 17.5031 15.5713 18.7725H34.4184C34.2976 17.5028 33.7947 16.2779 32.9552 15.2086C32.1157 14.1393 30.9661 13.2593 29.6103 12.6481Z" fill="#3DDC84"/>
<path d="M37.2657 23.5449H36.0239C35.9822 23.5449 35.9423 23.5585 35.9129 23.5827C35.8835 23.607 35.867 23.6399 35.867 23.6741V39.8103C35.8669 39.8431 35.882 39.8747 35.9093 39.8986C35.9365 39.9225 35.9738 39.937 36.0136 39.939H37.2928C38.0109 39.9374 38.6989 39.7012 39.206 39.2821C39.713 38.8631 39.9978 38.2954 39.9978 37.7036V21.3076C39.9978 21.9005 39.712 22.4691 39.2034 22.8883C38.6947 23.3075 38.0048 23.543 37.2855 23.543L37.2657 23.5449Z" fill="#073042"/>
</g>
<defs>
<clipPath id="clip0_34_1711">
<rect width="30" height="30" fill="white" transform="translate(10 10)"/>
</clipPath>
</defs>
</svg>
