<svg width="30" height="43" fill="none" xmlns="http://www.w3.org/2000/svg"><ellipse cx="15" cy="24.028" rx="13.8" ry="14.4" fill="#fff"/><path d="M14.832 42.362c-1.018-.381-2.08-.612-3.123-.905-2.89-.81-5.785-1.609-8.68-2.4-.26-.071-.342-.202-.363-.456-.334-3.867-.673-7.735-1.018-11.603-.4-4.47-.808-8.94-1.21-13.41-.144-1.59-.276-3.181-.43-4.772-.033-.342.02-.468.416-.468 9.718.013 19.436.012 29.154.002.34 0 .45.07.416.428-.249 2.617-.482 5.237-.717 7.855-.206 2.29-.406 4.58-.61 6.871-.238 2.646-.479 5.292-.715 7.938-.207 2.318-.42 4.635-.603 6.954-.033.418-.162.605-.584.72-3.801 1.032-7.594 2.092-11.39 3.144-.075.021-.171 0-.209.1h-.33l-.004.002Zm.154-27.765v.01h-1.574c-2.484 0-4.97 0-7.454.002-.192 0-.417-.078-.373.293.119.983.234 1.969.277 2.957.02.453.177.52.579.52 4.486-.01 8.972 0 13.458-.004.3 0 .39.04.348.38a48.199 48.199 0 0 0-.267 3.043c-.02.327-.113.405-.43.404-3.147-.009-6.294 0-9.441.002-1.173 0-2.347.008-3.52-.006-.274-.003-.342.057-.309.347.112.97.215 1.944.253 2.92.016.434.16.51.556.508 4.045-.01 8.088.003 12.133-.002.3 0 .388.047.354.38-.143 1.382-.25 2.768-.361 4.154-.018.215-.072.338-.312.4-1.25.326-2.495.674-3.742 1.015a.667.667 0 0 1-.367 0c-1.246-.342-2.492-.684-3.742-1.01-.215-.056-.276-.146-.292-.359-.061-.795-.162-1.588-.216-2.383-.019-.27-.104-.342-.366-.338-1.022.014-2.043.013-3.064 0-.267-.003-.356.049-.328.342.163 1.726.308 3.454.447 5.181.023.288.152.415.428.49 2.36.644 4.716 1.3 7.074 1.955.192.053.372.044.566-.01 2.33-.65 4.662-1.3 6.998-1.93.303-.08.424-.202.435-.514.015-.44.086-.876.125-1.314.229-2.617.454-5.236.685-7.854.273-3.083.548-6.166.835-9.249.025-.255-.013-.336-.284-.335-3.037.008-6.073.006-9.11.006v-.001Z" fill="#3D5CAA"/><path d="M14.827.035c.663 0 1.325.007 1.988-.004.194-.003.287.045.253.25-.002.013 0 .027 0 .04-.029.449.19 1.034-.087 1.305-.22.215-.81.057-1.236.062-.359.003-.718-.003-1.077.002-.11.001-.252-.052-.255.16-.004.21.132.168.248.168.704.002 1.408.01 2.112-.005.228-.004.304.051.3.29-.012 1.075-.011 2.15 0 3.224.003.227-.051.301-.291.299-1.325-.012-2.65-.011-3.975 0-.228.002-.318-.05-.298-.292.04-.475-.05-.955.05-1.429.454-.006.906-.015 1.36-.02.33-.003.663.003.994-.002.11-.001.252.052.255-.16.004-.21-.132-.168-.249-.168-.704-.002-1.407-.01-2.111.005-.228.004-.304-.051-.301-.29.013-1.048.012-2.095 0-3.14-.002-.228.05-.307.292-.3.676.016 1.352.005 2.028.005ZM20.257 5.821c-.663 0-1.324-.01-1.987.006-.235.006-.308-.062-.296-.296a13.96 13.96 0 0 0 0-1.198c-.007-.201.058-.255.255-.252.704.011 1.408.008 2.111 0 .113-.001.293.086.291-.162 0-.249-.179-.16-.292-.162-.69-.006-1.38-.013-2.07.003-.234.005-.3-.061-.297-.295.012-1.047.012-2.094 0-3.14-.003-.233.062-.297.296-.296 1.324.01 2.65.01 3.974 0 .234-.002.308.06.296.296-.023.437.148 1.015-.07 1.278-.226.272-.825.066-1.261.081-.372.014-.745.005-1.118.003-.117 0-.21-.003-.21.166 0 .17.094.166.211.166.718-.001 1.436.009 2.152-.006.234-.004.3.061.297.295-.012 1.075-.012 2.15 0 3.223.002.233-.06.302-.295.296-.662-.015-1.325-.006-1.988-.006h.001ZM7.045 2.874c0-.84.009-1.68-.006-2.52-.004-.241.038-.33.31-.326 1.31.016 2.62.013 3.932.002.239-.002.344.034.326.308a9.816 9.816 0 0 0 0 1.238c.017.278-.047.38-.35.368-.675-.026-1.353-.001-2.029-.012-.202-.004-.293.034-.283.266.02.454.022.909 0 1.363-.012.256.095.285.31.281.69-.012 1.38.003 2.069-.009.204-.003.292.037.282.268-.02.454-.014.909 0 1.363.005.205-.04.282-.269.281a221.004 221.004 0 0 0-4.014 0c-.257.002-.284-.096-.281-.31.01-.854.004-1.708.004-2.561h-.001Z" fill="#fff"/></svg>