<svg width="50" height="50" viewBox="0 0 50 50" fill="none" xmlns="http://www.w3.org/2000/svg">
<path d="M25 0L46.6506 12.5V37.5L25 50L3.34937 37.5V12.5L25 0Z" fill="white"/>
<g clip-path="url(#clip0_34_1401)">
<path d="M21.9317 9.05859C22.212 9.17109 22.5127 9.1375 22.8032 9.17266C24.5486 9.38594 26.2417 9.77109 27.7981 10.6281C28.3034 10.9062 28.7696 11.2383 29.1703 11.6562C29.7325 12.243 30.0262 12.9234 30.0238 13.7555C30.0113 18.0625 30.0215 22.3703 30.0106 26.6773C30.0106 26.9672 30.0886 27.0211 30.3628 27.0203C33.353 27.0094 36.344 27.0305 39.3343 27.0039C40.3198 26.9953 41.0102 27.7437 41.0008 28.6547C40.9696 31.568 40.9891 34.482 40.9891 37.3961C40.9891 38.382 40.3745 38.9992 39.392 38.9992C34.804 38.9992 30.2159 38.9992 25.6271 38.9992C24.6431 38.9992 24.0332 38.3891 24.0293 37.3977C24.0262 36.5789 24.023 35.7602 24.0324 34.9422C24.0348 34.7617 23.9942 34.6992 23.8067 34.7328C22.2073 35.0203 20.597 35.0844 18.9789 34.9578C17.3452 34.8297 15.7419 34.5391 14.2253 33.8961C12.8313 33.3055 11.5818 32.5359 11.0586 30.9875V13.0938C11.3272 12.2656 11.8278 11.6109 12.5338 11.1055C14.1089 9.97891 15.9207 9.52266 17.7942 9.23281C18.1988 9.17031 18.615 9.19453 19.0086 9.05859H21.9317ZM25.7919 20.2297H25.7903C26.6634 19.9938 27.453 19.5922 28.1535 19.0195C28.7267 18.5516 29.0445 17.9828 29.018 17.2039C28.9781 16.0367 28.9992 14.8664 29.0117 13.6984C29.0164 13.2562 28.8915 12.8727 28.6111 12.5422C27.8333 11.6234 26.7907 11.1516 25.6708 10.8141H25.6724C25.6263 10.7531 25.5623 10.7484 25.4936 10.7555C24.4362 10.3727 23.3311 10.2203 22.2222 10.1242C20.2347 9.95156 18.2589 10.0609 16.3159 10.5297C15.1718 10.8055 14.0707 11.2008 13.1093 11.9117C12.4026 12.4336 11.9949 13.0789 12.041 14.0125C12.0941 15.0906 12.073 16.1742 12.0457 17.2547C12.0293 17.9102 12.2745 18.4203 12.7321 18.857C12.9656 19.0797 13.2171 19.2773 13.4928 19.4422C15.2382 20.4828 17.1742 20.8297 19.1609 20.9883C20.4752 21.093 21.7856 21.0422 23.0906 20.8687C23.9645 20.7523 24.8321 20.6008 25.6607 20.2812C25.713 20.2867 25.7653 20.2922 25.7911 20.2305L25.7919 20.2297ZM22.9875 33.8445C23.2749 33.7992 23.5615 33.7539 23.8489 33.7078C23.9614 33.6898 24.0371 33.6586 24.0355 33.5102C24.0277 32.6336 24.0301 31.757 24.0332 30.8812C24.0332 30.7602 24.0137 30.707 23.87 30.7383C23.5951 30.7969 23.3155 30.8328 23.0375 30.8781C22.95 30.8789 22.8618 30.8727 22.7759 30.8828C20.6236 31.1266 18.4846 31.0492 16.3706 30.5695C14.8376 30.2211 13.3733 29.6984 12.1566 28.6461C12.1285 28.6219 12.0965 28.5961 12.0535 28.6383C12.0535 29.2273 12.0574 29.8211 12.0519 30.4156C12.0488 30.768 12.1496 31.0844 12.3456 31.3727C12.6986 31.8922 13.1859 32.2625 13.7271 32.5578C15.4405 33.4945 17.3124 33.8312 19.2312 33.968C20.4861 34.0578 21.7403 34.0187 22.9883 33.8453L22.9875 33.8445ZM28.0051 24.8438C27.9863 24.8477 27.9645 24.8469 27.9489 24.8563C26.098 25.9188 24.0637 26.3148 21.9715 26.4773C20.5033 26.5914 19.0367 26.5312 17.5803 26.307C16.2261 26.0984 14.9086 25.7594 13.6708 25.1492C13.0984 24.8672 12.5728 24.5148 12.0535 24.0742C12.0535 24.7961 12.0871 25.468 12.0449 26.1352C11.9902 26.9984 12.3885 27.6023 13.0289 28.1C13.8544 28.7414 14.8063 29.1187 15.7974 29.4055C17.7521 29.9711 19.7552 30.0742 21.7724 29.9773C22.1949 29.957 22.6252 29.9461 23.0391 29.8266C23.7008 29.7995 24.0316 29.4599 24.0316 28.8078C24.0316 28.7594 24.0348 28.7109 24.0316 28.6633C23.9981 28.2391 24.1261 27.8656 24.3846 27.532C24.7759 27.1344 25.253 26.9969 25.8036 27.0102C26.5393 27.0281 27.2749 27.0086 28.0113 27.0055C28.2636 27.0086 28.5166 27.0016 28.7681 27.0187C28.9571 27.032 29.0148 26.9727 29.0125 26.7789C29.0023 25.943 29.0086 25.107 29.0063 24.2711C29.0063 24.2227 29.0414 24.1508 28.9461 24.1266C28.6673 24.407 28.3214 24.6055 28.0051 24.8445V24.8438ZM28.0074 20.3492C27.8184 20.4461 27.631 20.5461 27.4405 20.6398C25.4217 21.6313 23.2546 21.9523 21.0391 22.032C19.8708 22.0742 18.7072 21.9852 17.5506 21.8094C16.1745 21.6 14.8415 21.2461 13.5904 20.6203C13.0461 20.3484 12.5455 20.0094 12.0527 19.582C12.0527 20.3805 12.0621 21.1281 12.0496 21.8758C12.041 22.3828 12.2284 22.8008 12.5596 23.1672C13.0843 23.75 13.7466 24.1328 14.4557 24.4352C16.4471 25.2844 18.5494 25.5359 20.6892 25.5219C22.4026 25.5109 24.0988 25.332 25.731 24.757C25.7997 24.7328 25.8848 24.7477 25.9332 24.6727L25.9473 24.6687C26.9828 24.3484 27.9239 23.8695 28.6306 23.0188C28.8915 22.7047 29.0211 22.3367 29.0117 21.9156C28.9977 21.2742 29.0078 20.632 29.0078 19.9898C29.0078 19.8711 29.0078 19.7531 29.0078 19.5758C28.6665 19.9062 28.3292 20.1172 28.0074 20.3484V20.3492ZM32.5135 38.0039V38.0016C34.7821 38.0016 37.0516 38.0016 39.3202 38.0016C39.8184 38.0016 39.9895 37.832 39.9902 37.3375C39.9902 34.4539 39.9902 31.5703 39.9902 28.6867C39.9902 28.1922 39.82 28.0219 39.3202 28.0219C34.7821 28.0195 30.2441 28.0187 25.7068 28.018C25.1882 28.018 25.0297 28.1797 25.0297 28.7016C25.0297 31.5758 25.0297 34.4492 25.0297 37.3234C25.0297 37.8422 25.1906 38.0047 25.7068 38.0047C27.9754 38.0047 30.2448 38.0047 32.5135 38.0047V38.0039Z" fill="#020507"/>
<path d="M32.5127 38.0039C30.244 38.0039 27.9746 38.0039 25.706 38.0039C25.1898 38.0039 25.0289 37.8414 25.0289 37.3227C25.0289 34.4485 25.0289 31.575 25.0289 28.7008C25.0289 28.1789 25.1874 28.0172 25.706 28.0172C30.244 28.0172 34.7821 28.0188 39.3194 28.0211C39.8184 28.0211 39.9895 28.1914 39.9895 28.686C39.9895 31.5696 39.9895 34.4531 39.9895 37.3367C39.9895 37.8313 39.8176 38.0008 39.3194 38.0008C37.0508 38.0008 34.7813 38.0008 32.5127 38.0008V38.0031V38.0039ZM31.0125 33.0172C31.0125 33.0172 31.0055 33.0172 31.0016 33.0172C31.0016 33.3578 30.9922 33.6992 31.0031 34.0399C31.0523 35.5289 32.5744 36.4672 33.8739 35.7836C34.2073 35.6078 34.4151 35.5258 34.6782 35.8688C34.8415 36.0813 35.1382 36.0446 35.3311 35.8657C35.5287 35.6828 35.5545 35.4016 35.3772 35.1836C35.2671 35.0485 35.1359 34.9297 35.0117 34.8063C34.9492 34.7438 34.8836 34.6891 34.9086 34.5836C35.1093 33.7469 35.0023 32.8961 35.0023 32.0531C35.0023 30.9094 34.1777 30.0696 33.064 30.0117C32.0379 29.9586 31.1382 30.7508 31.0187 31.8492C30.9766 32.2344 31.0117 32.6274 31.0117 33.0172H31.0125ZM27.6935 36.0133C27.6935 36.0133 27.6935 36.0117 27.6935 36.011C27.9075 36.011 28.1222 36.0203 28.3354 36.0094C29.2889 35.9594 30.0082 35.2016 30.0066 34.2555C30.0051 33.3227 29.2811 32.5571 28.3565 32.511C27.8239 32.4844 27.5209 32.2 27.5326 31.7367C27.5435 31.293 27.8551 31.0289 28.3831 31.0219C28.7431 31.0172 29.1039 31.0297 29.4631 31.018C29.8145 31.0063 30.0113 30.8071 30.0051 30.5016C29.9988 30.2149 29.7966 30.0188 29.4654 30.0102C29.057 30 28.647 29.9922 28.2394 30.0125C27.2507 30.0625 26.5221 30.8102 26.5197 31.7571C26.5174 32.7117 27.2296 33.4414 28.2253 33.5055C28.7056 33.536 29.0125 33.8375 29.0055 34.2727C28.9992 34.6938 28.6939 34.9922 28.2253 35.0086C27.8364 35.0219 27.4467 35.0071 27.0578 35.0141C26.7337 35.0196 26.5244 35.218 26.5236 35.5047C26.5236 35.793 26.7298 35.9977 27.0508 36.0117C27.2647 36.0211 27.4787 36.0133 27.6927 36.0133H27.6935ZM36.49 33.0156C36.49 33.8141 36.4877 34.6133 36.4908 35.4117C36.4924 35.761 36.6595 35.993 36.9625 36.0047C37.4873 36.025 38.0144 36.0235 38.5392 36.0032C38.8094 35.9922 39.0094 35.7367 38.9977 35.4867C38.9859 35.225 38.7837 35.0281 38.4986 35.0156C38.2753 35.0063 38.0496 34.9961 37.827 35.0156C37.5693 35.0383 37.4795 34.968 37.4834 34.6867C37.4998 33.343 37.4912 31.9985 37.4897 30.6539C37.4897 30.5196 37.5076 30.3797 37.4209 30.2586C37.2843 30.0672 37.1093 29.9719 36.8688 30.0383C36.6033 30.111 36.4924 30.3031 36.4908 30.5602C36.4861 31.3781 36.4893 32.1969 36.4893 33.0149L36.49 33.0156Z" fill="#FDDB01"/>
<path d="M25.6615 20.2805C24.8329 20.6 23.9653 20.7523 23.0914 20.868C21.7864 21.0414 20.4752 21.0922 19.1617 20.9875C17.1757 20.8289 15.2398 20.4828 13.4936 19.4414C13.2171 19.2766 12.9656 19.0789 12.7329 18.8562C12.2745 18.4195 12.0301 17.9094 12.0465 17.2539C12.0738 16.1734 12.0949 15.0898 12.0418 14.0117C11.9957 13.0781 12.4034 12.4336 13.1101 11.9109C14.0715 11.2008 15.1726 10.8047 16.3167 10.5289C18.2604 10.0609 20.2355 9.95077 22.223 10.1234C23.3327 10.2203 24.4377 10.3726 25.4943 10.7547C25.5412 10.8133 25.6037 10.8226 25.6732 10.8133H25.6716C25.7669 10.8781 25.8559 10.9562 25.959 11.007C26.5338 11.2914 27.0312 11.6766 27.4537 12.1555C27.8036 12.5531 28.0176 13.0094 28.0152 13.5562C28.0098 14.8812 28.0145 16.2062 28.0129 17.5312C28.0129 17.657 28.0098 17.7805 27.9801 17.907C27.7692 18.8148 27.1078 19.3453 26.394 19.8391C26.1964 19.9758 25.9473 20.0312 25.7911 20.2297L25.7927 20.2289C25.7372 20.2148 25.695 20.2359 25.6622 20.2797L25.6615 20.2805ZM20.4229 17.0437C21.9371 17.0297 23.3249 16.8898 24.6759 16.4844C25.4897 16.2398 26.2753 15.9305 26.9047 15.3344C27.731 14.5523 27.7278 13.5711 26.918 12.7781C26.5221 12.3906 26.0465 12.132 25.5412 11.9226C24.0761 11.3141 22.5314 11.1109 20.9633 11.057C19.6076 11.0109 18.2628 11.1445 16.9446 11.4641C16.0379 11.6844 15.1585 11.9836 14.4002 12.5609C13.296 13.4016 13.2686 14.6078 14.337 15.4844C14.6322 15.7266 14.9563 15.9211 15.3038 16.0758C16.9695 16.8148 18.736 17.0141 20.4229 17.0445V17.0437Z" fill="#39A4DB"/>
<path d="M25.731 24.757C24.0988 25.332 22.4034 25.5102 20.6892 25.5219C18.5494 25.5359 16.4479 25.2844 14.4557 24.4352C13.7458 24.1328 13.0843 23.75 12.5595 23.1672C12.2284 22.8 12.041 22.3828 12.0496 21.8758C12.0621 21.1281 12.0527 20.3805 12.0527 19.582C12.5455 20.0086 13.0461 20.3477 13.5904 20.6203C14.8415 21.2461 16.1745 21.5992 17.5506 21.8094C18.7071 21.9852 19.8707 22.0742 21.039 22.032C23.2546 21.9523 25.4209 21.6313 27.4404 20.6398C27.631 20.5461 27.8184 20.4461 28.0074 20.3492C28.009 20.9242 28.0105 21.4992 28.0121 22.0742C28.0129 22.4344 27.9051 22.7617 27.7185 23.0664C27.3631 23.6469 26.8422 24.0469 26.2768 24.4C26.1566 24.475 26.0043 24.5141 25.9481 24.6687L25.934 24.6727C25.8528 24.668 25.7677 24.6531 25.7317 24.757H25.731Z" fill="#39A4DB"/>
<path d="M23.039 29.8266C22.6251 29.9461 22.1948 29.957 21.7723 29.9773C19.7544 30.0742 17.752 29.9711 15.7973 29.4055C14.8063 29.1188 13.8543 28.7406 13.0289 28.1C12.3885 27.6031 11.9902 26.9984 12.0449 26.1352C12.0871 25.468 12.0535 24.7961 12.0535 24.0742C12.5728 24.5148 13.0976 24.8672 13.6708 25.1492C14.9086 25.7594 16.2253 26.0977 17.5802 26.307C19.0367 26.532 20.5033 26.5914 21.9715 26.4773C24.0636 26.3148 26.098 25.9188 27.9488 24.8563C27.9645 24.8469 27.9863 24.8477 28.0059 24.8438C28.0074 25.5641 28.0098 26.2844 28.0113 27.0047C27.2757 27.0078 26.5392 27.0273 25.8036 27.0094C25.253 26.9961 24.7751 27.1336 24.3846 27.5313C24.3073 27.5328 24.2284 27.5445 24.1527 27.5336C23.531 27.4477 22.982 27.9695 23.0367 28.6641C23.0664 29.0492 23.0414 29.4383 23.0406 29.8258L23.039 29.8266Z" fill="#39A4DB"/>
<path d="M22.9875 33.8446C21.7396 34.0172 20.4861 34.0563 19.2304 33.9672C17.3116 33.8305 15.4405 33.4938 13.7263 32.5571C13.1851 32.261 12.6978 31.8914 12.3448 31.3719C12.1488 31.0836 12.048 30.7672 12.0512 30.4149C12.0566 29.8203 12.0527 29.2266 12.0527 28.6375C12.0957 28.5953 12.1277 28.6211 12.1558 28.6453C13.3725 29.6977 14.8368 30.2211 16.3698 30.5688C18.483 31.0485 20.6228 31.1258 22.7751 30.8821C22.8618 30.8719 22.9492 30.8789 23.0367 30.8774C23.0383 31.7727 23.0391 32.6672 23.0406 33.5625C23.0406 33.6602 23.043 33.7578 22.9867 33.8446H22.9875Z" fill="#39A4DB"/>
<path d="M25.7903 20.2312C25.9465 20.032 26.1956 19.9765 26.3932 19.8406C27.107 19.3469 27.7684 18.8164 27.9793 17.9086C28.009 17.782 28.0121 17.6586 28.0121 17.5328C28.0137 16.2078 28.009 14.8828 28.0144 13.5578C28.0168 13.0109 27.8028 12.5554 27.4529 12.157C27.0312 11.6773 26.533 11.2929 25.9582 11.0086C25.8559 10.9578 25.7669 10.8804 25.6708 10.8148C26.7915 11.1523 27.834 11.6242 28.6111 12.5429C28.8907 12.8734 29.0164 13.257 29.0117 13.6992C28.9984 14.8679 28.9781 16.0375 29.018 17.2047C29.0445 17.9836 28.7267 18.5523 28.1535 19.0203C27.4529 19.5929 26.6634 19.9945 25.7903 20.2312Z" fill="#0E77B9"/>
<path d="M25.9473 24.6687C26.0043 24.514 26.1558 24.475 26.2761 24.4C26.8415 24.0468 27.3624 23.6469 27.7177 23.0664C27.9043 22.7609 28.0121 22.4336 28.0113 22.0742C28.0098 21.4992 28.0082 20.9242 28.0066 20.3492C28.3284 20.1179 28.6658 19.907 29.007 19.5765C29.007 19.7539 29.007 19.8718 29.007 19.9906C29.007 20.6328 28.9961 21.2742 29.0109 21.9164C29.0203 22.3375 28.8907 22.7054 28.6298 23.0195C27.9231 23.8695 26.982 24.3492 25.9465 24.6695L25.9473 24.6687Z" fill="#0E77B9"/>
<path d="M22.9875 33.8445C23.0437 33.7578 23.0414 33.6609 23.0414 33.5625C23.039 32.6672 23.0383 31.7726 23.0375 30.8773C23.3155 30.832 23.5951 30.7961 23.87 30.7375C24.0144 30.7062 24.034 30.7594 24.0332 30.8805C24.0301 31.757 24.0277 32.6336 24.0355 33.5094C24.0371 33.6586 23.9613 33.689 23.8489 33.707C23.5615 33.7523 23.2749 33.7984 22.9875 33.8437V33.8445Z" fill="#0E77B9"/>
<path d="M28.0105 27.0047C28.009 26.2844 28.0066 25.5641 28.0051 24.8438C28.3214 24.6047 28.6673 24.4063 28.9461 24.1258C29.0414 24.15 29.0055 24.2219 29.0063 24.2703C29.0086 25.1063 29.0016 25.9422 29.0125 26.7781C29.0148 26.9719 28.9563 27.0313 28.7681 27.018C28.5166 27.0008 28.2636 27.0078 28.0113 27.0047H28.0105Z" fill="#0E77B9"/>
<path d="M23.039 29.8265C23.039 29.439 23.0656 29.05 23.0351 28.6648C22.9813 27.9703 23.5295 27.4484 24.1511 27.5344C24.2269 27.5445 24.3057 27.5328 24.3831 27.532C24.1253 27.8656 23.9965 28.239 24.0301 28.6633C24.034 28.7109 24.0301 28.7601 24.0301 28.8078C24.0301 29.4599 23.6992 29.7995 23.0375 29.8265H23.039Z" fill="#0E77B9"/>
<path d="M25.6724 10.8148C25.6037 10.8242 25.5404 10.8148 25.4936 10.7563C25.5615 10.7492 25.6263 10.7539 25.6724 10.8148Z" fill="#0E77B9"/>
<path d="M25.731 24.757C25.7669 24.6531 25.852 24.6679 25.9332 24.6726C25.8856 24.7476 25.8005 24.7328 25.731 24.757Z" fill="#0E77B9"/>
<path d="M25.6615 20.2805C25.695 20.2375 25.7364 20.2164 25.7919 20.2297C25.7653 20.2914 25.7138 20.286 25.6615 20.2805Z" fill="#0E77B9"/>
<path d="M31.0133 33.0172C31.0133 32.6274 30.9781 32.2344 31.0203 31.8492C31.1398 30.7508 32.0394 29.9586 33.0656 30.0117C34.1792 30.0695 35.0047 30.9094 35.0039 32.0531C35.0039 32.8961 35.1109 33.7469 34.9102 34.5836C34.8852 34.6891 34.9508 34.7438 35.0133 34.8063C35.1374 34.9297 35.2686 35.0485 35.3788 35.1836C35.556 35.4016 35.5303 35.6828 35.3327 35.8656C35.139 36.0445 34.843 36.0813 34.6798 35.8688C34.4166 35.5258 34.2089 35.6078 33.8754 35.7836C32.5767 36.4672 31.0539 35.5281 31.0047 34.0399C30.9938 33.6992 31.0031 33.3578 31.0031 33.0172C31.007 33.0172 31.0102 33.0172 31.0141 33.0172H31.0133ZM33.9887 33.7235C33.9887 33.1125 34.009 32.5125 33.9824 31.9141C33.9606 31.4078 33.5435 31.0406 33.0383 31.025C32.5291 31.0094 32.1027 31.3461 32.0363 31.8508C31.9653 32.3922 32.0176 32.9391 32.009 33.4836C32.0051 33.736 31.9871 33.9906 32.0426 34.2399C32.2089 34.9953 33.164 35.2211 33.5998 34.7422C33.5092 34.6735 33.4077 34.6125 33.3257 34.5313C32.993 34.2055 32.9321 33.9399 33.1242 33.7008C33.3186 33.4586 33.5631 33.4617 33.9887 33.7227V33.7235Z" fill="#020507"/>
<path d="M27.6943 36.0133C27.4803 36.0133 27.2655 36.0211 27.0523 36.0117C26.7314 35.9977 26.5244 35.793 26.5252 35.5047C26.5252 35.218 26.7353 35.0196 27.0593 35.0141C27.4483 35.0078 27.8379 35.0227 28.2269 35.0086C28.6954 34.9922 29.0008 34.6938 29.007 34.2727C29.0133 33.8375 28.7071 33.5367 28.2269 33.5055C27.2304 33.4414 26.5189 32.7117 26.5213 31.7571C26.5236 30.8102 27.2522 30.0625 28.2409 30.0125C28.6486 29.9922 29.0586 29.9992 29.467 30.0102C29.7981 30.0188 30.0004 30.2149 30.0066 30.5016C30.0129 30.8071 29.8161 31.0055 29.4647 31.018C29.1046 31.0305 28.7446 31.018 28.3846 31.0219C27.8567 31.0282 27.5451 31.2922 27.5342 31.7367C27.5232 32.2 27.8255 32.4844 28.3581 32.511C29.2819 32.5571 30.0059 33.3219 30.0082 34.2555C30.0098 35.2024 29.2905 35.9602 28.337 36.0094C28.1238 36.0203 27.909 36.011 27.695 36.011C27.695 36.011 27.695 36.0125 27.695 36.0133H27.6943Z" fill="#020507"/>
<path d="M36.4908 33.0156C36.4908 32.1977 36.4885 31.3789 36.4924 30.5609C36.4939 30.3031 36.6048 30.1117 36.8704 30.0391C37.1101 29.9734 37.285 30.068 37.4225 30.2594C37.5092 30.3805 37.4912 30.5203 37.4912 30.6547C37.4928 31.9992 37.5014 33.343 37.485 34.6875C37.4818 34.968 37.5709 35.0391 37.8286 35.0164C38.0504 34.9969 38.2761 35.0062 38.5002 35.0164C38.7852 35.0289 38.9867 35.2258 38.9992 35.4875C39.0109 35.7375 38.811 35.993 38.5408 36.0039C38.016 36.0242 37.4889 36.0258 36.9641 36.0055C36.6603 35.9937 36.4932 35.7617 36.4924 35.4125C36.4893 34.6141 36.4916 33.8148 36.4916 33.0164L36.4908 33.0156Z" fill="#020507"/>
<path d="M20.4229 17.0437C18.736 17.014 16.9695 16.8148 15.3038 16.075C14.9563 15.9211 14.633 15.7258 14.337 15.4836C13.2679 14.6078 13.296 13.4008 14.4002 12.5601C15.1585 11.9828 16.0379 11.6836 16.9446 11.4633C18.2636 11.143 19.6076 11.0094 20.9633 11.0562C22.5314 11.1101 24.0761 11.3133 25.5412 11.9219C26.0465 12.1312 26.5221 12.3898 26.918 12.7773C27.7286 13.5703 27.731 14.5515 26.9047 15.3336C26.2753 15.9297 25.4897 16.239 24.6759 16.4836C23.3249 16.8898 21.9371 17.0289 20.4229 17.043V17.0437ZM20.5471 12.0492C19.2421 12.0797 17.9465 12.1789 16.69 12.5648C16.0277 12.768 15.3819 13.0086 14.861 13.4883C14.4588 13.8586 14.4612 14.207 14.8454 14.589C15.1476 14.8898 15.5162 15.0875 15.902 15.2484C16.9508 15.6875 18.0543 15.8937 19.1827 15.9773C20.95 16.107 22.7009 16.0344 24.412 15.525C25.057 15.3336 25.6818 15.0867 26.1925 14.6281C26.608 14.2555 26.615 13.8851 26.2277 13.5023C25.9325 13.2101 25.5724 13.0187 25.196 12.8578C23.7099 12.225 22.1371 12.0914 20.5478 12.0484L20.5471 12.0492Z" fill="#020507"/>
<path d="M33.9887 33.7234C33.5631 33.4625 33.3186 33.4594 33.1242 33.7016C32.9321 33.9406 32.993 34.2063 33.3257 34.532C33.4084 34.6133 33.51 34.6742 33.5998 34.743C33.164 35.2219 32.2089 34.9961 32.0426 34.2406C31.9879 33.9906 32.0051 33.7367 32.009 33.4844C32.0176 32.9399 31.9652 32.393 32.0363 31.8516C32.1019 31.3469 32.5291 31.0102 33.0383 31.0258C33.5428 31.0414 33.9598 31.4086 33.9824 31.9149C34.0082 32.5133 33.9887 33.1133 33.9887 33.7242V33.7234Z" fill="#FDDB01"/>
<path d="M20.5471 12.0492C22.1355 12.0922 23.7091 12.2258 25.1952 12.8586C25.5724 13.0187 25.9324 13.2109 26.2269 13.5031C26.6142 13.8859 26.6072 14.2562 26.1917 14.6289C25.681 15.0875 25.0562 15.3336 24.4112 15.5258C22.7001 16.0344 20.9492 16.1078 19.182 15.9781C18.0535 15.8953 16.95 15.6883 15.9012 15.2492C15.5154 15.0875 15.1468 14.8906 14.8446 14.5898C14.4611 14.2078 14.458 13.8594 14.8602 13.489C15.3811 13.0094 16.0269 12.7695 16.6892 12.5656C17.9465 12.1797 19.2421 12.0797 20.5463 12.0492H20.5471Z" fill="#0E77B9"/>
</g>
<defs>
<clipPath id="clip0_34_1401">
<rect width="30" height="30" fill="white" transform="translate(11 9)"/>
</clipPath>
</defs>
</svg>
