<svg width="41" height="41" fill="none" xmlns="http://www.w3.org/2000/svg"><path fill-rule="evenodd" clip-rule="evenodd" d="M20.833 20.39a5 5 0 1 1 10 0 5 5 0 0 1-10 0Z" fill="#1ABCFE"/><path fill-rule="evenodd" clip-rule="evenodd" d="M10.833 30.39a5 5 0 0 1 5-5h5v5a5 5 0 0 1-10 0Z" fill="#0ACF83"/><path fill-rule="evenodd" clip-rule="evenodd" d="M20.833 5.39v10h5a5 5 0 0 0 0-10h-5Z" fill="#FF7262"/><path fill-rule="evenodd" clip-rule="evenodd" d="M10.833 10.39a5 5 0 0 0 5 5h5v-10h-5a5 5 0 0 0-5 5Z" fill="#F24E1E"/><path fill-rule="evenodd" clip-rule="evenodd" d="M10.833 20.39a5 5 0 0 0 5 5h5v-10h-5a5 5 0 0 0-5 5Z" fill="#A259FF"/></svg>