<svg width="31" height="43" fill="none" xmlns="http://www.w3.org/2000/svg"><ellipse cx="16" cy="22.8" rx="12" ry="14.4" fill="#fff"/><path d="M15.234 42.387c-1.112-.4-2.266-.66-3.402-.98a948.019 948.019 0 0 0-8.362-2.305c-.295-.08-.384-.213-.41-.502-.317-3.662-.65-7.323-.975-10.985-.288-3.25-.57-6.501-.86-9.751-.262-2.935-.53-5.869-.798-8.803-.062-.675-.069-.675.586-.675 9.636 0 19.27.002 28.906-.009.395 0 .514.074.473.49-.282 2.933-.542 5.867-.804 8.802-.235 2.62-.46 5.24-.694 7.859-.262 2.934-.53 5.869-.793 8.804-.126 1.413-.256 2.825-.362 4.24-.023.307-.12.441-.432.526-3.865 1.056-7.724 2.13-11.585 3.2-.062.016-.143-.004-.158.091h-.33v-.002Zm.164-27.762v.007H14.9c-2.857 0-5.714 0-8.572-.002-.221 0-.396-.023-.359.313.108.943.18 1.89.267 2.837.238 2.59.487 5.18.702 7.772.03.378.152.44.492.44 4.017-.006 8.033.003 12.05.009.096 0 .194.007.29-.002.211-.02.24.067.221.268a276.83 276.83 0 0 0-.373 4.278c-.02.253-.127.352-.358.413-1.225.318-2.448.647-3.67.976a.74.74 0 0 1-.403-.005c-1.235-.334-2.471-.665-3.71-.984-.22-.056-.303-.146-.318-.384-.052-.797-.15-1.59-.208-2.386-.018-.24-.08-.327-.34-.323-1.049.016-2.098.012-3.147.002-.231-.002-.307.047-.284.3.165 1.754.316 3.51.46 5.266.021.26.135.372.38.44 2.361.648 4.72 1.305 7.078 1.964.193.054.37.054.563 0 2.345-.655 4.69-1.31 7.04-1.945.305-.083.43-.203.424-.521-.007-.315.049-.63.077-.945.295-3.222.59-6.442.883-9.664.048-.526.041-.527-.498-.527-4.25.002-8.502 0-12.753.012-.302 0-.422-.059-.444-.39-.068-.989-.174-1.975-.273-2.96-.05-.491-.057-.491.445-.491 4.5.002 9 .002 13.5.013.31 0 .43-.069.453-.4.066-1.016.156-2.03.27-3.043.033-.298-.051-.345-.318-.345-3.023.008-6.046.004-9.069.004l-.001.003Z" fill="#F05129"/><path d="M18.914 2.048c.373-.61.725-1.168 1.055-1.738.112-.193.237-.262.46-.253.467.019.938.014 1.405.001.216-.006.316.029.314.283-.011 1.72-.01 3.441 0 5.162 0 .23-.081.274-.287.267-.455-.013-.91-.019-1.365.001-.25.011-.293-.087-.29-.308.013-.782.005-1.564.005-2.47l-1.315 2.004-1.335-2.034c0 .904-.009 1.682.006 2.459.004.249-.031.371-.327.351-.426-.028-.855-.014-1.282-.004-.196.004-.296-.024-.294-.263.01-1.735.006-3.469.002-5.204 0-.169.035-.267.226-.242.027.004.056 0 .084 0 .565.004 1.225-.172 1.668.061.42.222.614.873.906 1.335.118.186.23.372.366.59l-.002.002ZM3.154 2.92c0-.854.008-1.709-.005-2.563-.004-.232.06-.31.297-.3.442.018.885.026 1.325-.002.298-.02.339.107.33.355-.017.413.007.828-.01 1.24-.01.24.076.31.31.299.452-.025 1.04.144 1.322-.08.298-.237.098-.851.084-1.297-.013-.398.065-.572.507-.52.38.045.772.016 1.158.006.195-.005.297.021.295.26-.01 1.737-.01 3.472 0 5.208 0 .217-.09.246-.27.243a25.99 25.99 0 0 0-1.408.002c-.227.008-.28-.076-.273-.285.013-.44-.008-.882.009-1.322.009-.225-.043-.318-.29-.305a8.577 8.577 0 0 1-1.118 0c-.279-.022-.313.097-.304.33.016.441-.005.882.009 1.322.005.197-.054.264-.255.259a23.457 23.457 0 0 0-1.448 0c-.235.01-.268-.087-.266-.29.01-.853.005-1.708.005-2.562l-.004.001ZM12.218.061c.785 0 1.571.01 2.357-.005.234-.005.31.063.3.3-.017.439-.018.88 0 1.319.012.244-.079.302-.306.293-.372-.017-.745.01-1.115-.01-.237-.013-.297.065-.295.296.013 1.059-.003 2.118.011 3.177.004.264-.057.358-.335.341a10.79 10.79 0 0 0-1.24 0c-.26.013-.349-.052-.343-.331.019-1.017-.007-2.036.015-3.054.007-.327-.048-.47-.414-.432-.34.037-.688-.003-1.032.013-.2.008-.262-.053-.256-.254.015-.454.018-.908 0-1.362-.01-.236.064-.3.298-.296.786.014 1.571.005 2.357.005h-.002ZM23.07 2.875c0-.84.007-1.678-.006-2.518-.003-.23.052-.311.293-.3.426.02.855.023 1.282 0 .283-.017.373.057.368.355-.02 1.004.007 2.01-.016 3.013-.007.34.047.48.435.456.66-.04 1.324-.003 1.984-.015.213-.005.291.054.285.275-.015.454-.017.909 0 1.361.009.226-.073.271-.281.27-1.351-.009-2.703-.01-4.054 0-.233.002-.3-.06-.296-.297.014-.867.006-1.734.006-2.6Z" fill="#fff"/></svg>