<svg width="41" height="40" fill="none" xmlns="http://www.w3.org/2000/svg"><g clip-path="url(#a)"><path d="M19.78 40c-.389-.173-.813-.106-1.215-.132a49.398 49.398 0 0 1-6.16-.803c-.076-.014-.15-.037-.227-.053-.195-.042-.357-.133-.338-.356.023-.245.207-.301.425-.294 1.673.05 3.346.115 5.02.14 1.688.025 3.378.03 5.066.006 1.945-.026 3.892-.066 5.825-.303 2.049-.252 4.016-.789 5.819-1.83.27-.157.525-.333.762-.538.135-.117.282-.257.482-.122.2.137.17.34.107.528-.24.717-.724 1.245-1.328 1.676-1.216.868-2.616 1.224-4.06 1.457-1.728.28-3.464.48-5.214.554-.044.002-.086.045-.13.07h-4.833Z" fill="#7F9DD1"/><path d="M26.115 3.89c.02 1.666-.69 3.022-1.78 4.223-1.167 1.284-2.548 2.323-3.868 3.433-.396.333-.768.697-1.156 1.042-.857.763-1.077 1.708-.896 2.816.314 1.934.97 3.75 1.79 5.517.06.129.132.252.185.385.064.163.093.331-.064.464-.164.138-.326.067-.457-.043-1.783-1.5-3.377-3.151-4.216-5.386-.616-1.64-.366-3.165.595-4.615.874-1.319 2.013-2.363 3.269-3.297 1.071-.796 2.2-1.516 3.21-2.396 1.105-.963 1.525-2.245 1.73-3.63a5.905 5.905 0 0 0 0-1.704c-.03-.215-.04-.438.216-.515.233-.069.348.106.452.282.62 1.058.98 2.192.99 3.426V3.89Z" fill="#D93E27"/><path d="M9.123 34.985c.605.352 1.275.453 1.927.568 1.853.325 3.722.49 5.602.579 2.052.095 4.102.092 6.15-.035 2.898-.179 5.782-.489 8.602-1.233.363-.097.723-.203 1.062-.373.213-.106.333-.247.22-.496-.074-.162-.052-.319.095-.415.156-.102.318-.059.467.053.65.49.7 1.235.122 1.807-.409.405-.937.609-1.452.811-1.379.545-2.822.86-4.282 1.102-2.46.406-4.938.567-7.43.652-1.963.066-3.921.02-5.878-.054-2.006-.075-4.013-.22-5.964-.753-.627-.172-1.239-.395-1.723-.857-.776-.74-.645-1.628.303-2.116.966-.498 2.021-.632 3.076-.756.669-.08 1.343-.114 2.014-.163.236-.017.518-.045.548.277.029.309-.25.352-.48.398-.839.172-1.673.358-2.468.688-.179.074-.361.139-.51.317ZM12.745 23.534c.936.263 1.844.294 2.747.353 2.114.14 4.23.1 6.344-.003 1.98-.096 3.96-.225 5.91-.614.253-.05.508-.1.758-.168.214-.058.402-.035.504.167.113.222-.045.36-.21.479-.64.455-1.345.792-2.075 1.06-1.786.65-3.633 1.023-5.528 1.196-1.685.154-3.37.174-5.057.133-1.595-.04-3.185-.175-4.727-.622-.636-.186-1.258-.422-1.733-.918-.565-.59-.481-1.374.193-1.837.75-.515 1.623-.663 2.493-.81 1.14-.192 2.292-.26 3.449-.25.214.002.446-.017.491.258.049.3-.194.357-.412.408-.86.2-1.714.413-2.524.769-.207.09-.438.155-.623.4Z" fill="#7F9DD1"/><path d="M22.355 22.875c.014-.04.048-.15.095-.255a7.052 7.052 0 0 0 .467-1.555c.1-.523-.016-.965-.342-1.377-.62-.78-1.285-1.54-1.61-2.502-.477-1.407-.744-2.816.21-4.158.508-.716 1.149-1.3 1.852-1.816 1.554-1.14 3.27-1.99 5.047-2.725.21-.086.404-.133.535.11.125.23-.038.362-.194.485-1.13.893-2.255 1.79-3.28 2.805-.406.402-.795.818-1.113 1.295-.555.835-.631 1.676-.066 2.538.27.412.544.82.793 1.245 1.064 1.81.912 3.358-.475 4.95-.41.471-.856.904-1.36 1.275-.133.098-.279.151-.432.061-.108-.063-.15-.173-.128-.375Z" fill="#D93E27"/><path d="M20.391 34.31c-1.874-.102-3.639-.154-5.342-.686-.462-.145-.897-.332-1.274-.646-.795-.66-.714-1.648.197-2.131.45-.24.945-.359 1.462-.346.336.009.475.182.327.469-.12.232-.055.27.16.326.845.22 1.711.28 2.573.377 2.066.231 4.084-.124 6.1-.5.26-.048.472-.028.697.115.547.35 1.108.676 1.662 1.014.166.102.343.2.318.443-.024.228-.212.269-.38.337-1.464.593-2.99.919-4.557 1.096-.686.078-1.377 0-1.942.13l-.001.002ZM18.66 29.97c-1.76-.001-3.494-.174-5.16-.789a3.635 3.635 0 0 1-.956-.515c-.567-.437-.574-1.093-.023-1.551.568-.473 1.275-.617 1.962-.803.172-.047.305.056.363.222.055.158-.03.271-.152.366-.157.12-.479.173-.41.394.068.217.386.214.61.253 2.033.353 4.075.34 6.125.177a31.935 31.935 0 0 0 4.754-.75.58.58 0 0 1 .508.106c.434.307.87.612 1.306.916.174.12.36.242.301.492-.055.234-.275.257-.46.296-1.444.305-2.89.602-4.354.808-1.464.205-2.93.383-4.413.378ZM32.77 21.159c1.46-.008 2.543.953 2.912 2.808.299 1.504-.405 2.592-1.514 3.46-1.392 1.09-3.027 1.674-4.73 2.087-.193.046-.346.005-.427-.166-.094-.198.015-.345.178-.46 1.053-.738 2.063-1.528 2.928-2.488.373-.414.72-.85.938-1.372.29-.694.081-1.378-.546-1.8-.759-.51-1.63-.638-2.512-.722-.212-.02-.396-.055-.441-.292-.043-.229.137-.321.303-.394.846-.374 1.714-.668 2.91-.661h.002Z" fill="#7F9DD1"/></g><defs><clipPath id="a"><path fill="#fff" transform="translate(.833)" d="M0 0h40v40H0z"/></clipPath></defs></svg>