<svg width="41" height="40" fill="none" xmlns="http://www.w3.org/2000/svg"><g clip-path="url(#a)"><path d="M40.493.156c0 13.162-.001 26.325.007 39.486 0 .292-.065.358-.358.358-13.162-.008-26.325-.007-39.486-.007C.656 26.872.658 13.75.646.63c0-.392.092-.484.484-.484 13.12.012 26.242.01 39.363.01Zm-9.29 36.724c.573.008 1.138-.064 1.7-.158 3.23-.542 5.033-3.158 4.383-6.367-.293-1.445-1.157-2.481-2.355-3.28-1.18-.787-2.502-1.28-3.783-1.86-.53-.24-1.065-.476-1.485-.897-.49-.492-.575-1.09-.384-1.725.187-.618.656-.942 1.277-1.045 1.173-.195 2.038.269 2.648 1.265.086.141.128.34.392.164.827-.553 1.672-1.083 2.513-1.614.15-.094.186-.166.084-.33-.516-.824-1.132-1.553-1.988-2.036-1.481-.836-3.084-.954-4.704-.61-1.943.412-3.364 1.528-3.84 3.513-.49 2.055-.039 3.904 1.621 5.345.933.809 2.05 1.292 3.166 1.775.828.36 1.689.661 2.42 1.208 1.205.901 1 2.494-.394 3.065-.806.33-1.64.32-2.475.114-1.07-.265-1.816-.958-2.393-1.854-.138-.213-.225-.276-.47-.126-.825.506-1.664.993-2.512 1.461-.243.133-.219.24-.104.438.287.495.618.956 1.018 1.365 1.554 1.593 3.507 2.158 5.664 2.19h.001Zm-8.842-11.629c0-2.152-.007-4.302.007-6.454.002-.29-.069-.37-.362-.364-.998.02-1.995.021-2.993 0-.317-.007-.409.066-.408.398.013 4.005.01 8.009.005 12.014 0 .361-.014.726-.064 1.085-.084.613-.314 1.15-.928 1.423-.96.426-2.122.13-2.754-.71a6.32 6.32 0 0 1-.527-.811c-.109-.203-.197-.208-.38-.095-.858.53-1.722 1.051-2.59 1.565-.184.108-.21.202-.109.39.574 1.064 1.344 1.943 2.438 2.479 1.825.894 3.712.938 5.608.253 1.335-.482 2.206-1.448 2.676-2.781.27-.765.377-1.557.379-2.364.006-2.01.002-4.017.003-6.027h-.001Z" fill="#FEDF00"/><path d="M31.203 36.88c-2.158-.03-4.11-.595-5.664-2.188-.399-.41-.73-.87-1.018-1.366-.115-.198-.139-.304.104-.438a66.287 66.287 0 0 0 2.513-1.461c.244-.15.331-.087.469.127.578.896 1.324 1.587 2.393 1.853.835.208 1.669.218 2.475-.113 1.392-.572 1.6-2.165.393-3.066-.73-.546-1.592-.848-2.42-1.208-1.116-.484-2.232-.966-3.165-1.775-1.66-1.44-2.113-3.29-1.62-5.345.475-1.985 1.896-3.1 3.839-3.513 1.62-.344 3.223-.225 4.704.61.856.482 1.472 1.21 1.988 2.036.102.165.064.236-.084.33-.841.53-1.686 1.061-2.513 1.614-.263.176-.306-.024-.392-.164-.609-.996-1.475-1.46-2.648-1.265-.62.103-1.09.427-1.277 1.046-.191.633-.106 1.232.384 1.724.42.42.955.658 1.485.898 1.28.58 2.603 1.072 3.783 1.858 1.198.8 2.062 1.835 2.355 3.281.65 3.209-1.153 5.825-4.383 6.368-.563.094-1.127.165-1.7.158ZM22.36 25.251c0 2.01.004 4.018-.002 6.027-.003.806-.11 1.599-.379 2.364-.47 1.333-1.34 2.3-2.676 2.781-1.896.685-3.783.642-5.608-.253-1.094-.536-1.864-1.415-2.438-2.478-.102-.188-.075-.282.11-.391.867-.513 1.731-1.034 2.589-1.565.183-.113.272-.108.38.095.153.284.334.555.527.812a2.305 2.305 0 0 0 2.754.709c.614-.272.844-.81.928-1.423.049-.358.063-.723.064-1.085.004-4.005.007-8.01-.005-12.014-.001-.332.091-.405.408-.397.997.021 1.995.02 2.993 0 .293-.007.364.073.362.363-.014 2.152-.007 4.303-.007 6.454v.001Z" fill="#060601"/></g><defs><clipPath id="a"><path fill="#fff" transform="translate(.5)" d="M0 0h40v40H0z"/></clipPath></defs></svg>