<svg width="81" height="42" fill="none" xmlns="http://www.w3.org/2000/svg"><g clip-path="url(#a)"><path d="M.6 38.168h2.636V27.764l4.08 9.073c.48 1.094 1.14 1.487 2.432 1.487 1.293 0 1.926-.389 2.408-1.487l4.08-9.073v10.408h2.637v-10.39c0-1.014-.407-1.505-1.243-1.758-2.001-.625-3.345-.084-3.953 1.267l-4.004 8.955-3.878-8.959c-.583-1.351-1.95-1.892-3.953-1.267-.837.254-1.242.744-1.242 1.757v10.391Zm20.463-8.471h2.635v5.734c-.025.312.1 1.043 1.544 1.066.736.011 5.685 0 5.731 0v-6.829h2.64c.012 0-.002 9.31-.002 9.35.015 2.297-2.849 2.795-4.168 2.834H21.12v-1.773h8.336c1.697-.18 1.496-1.023 1.496-1.307v-.691h-5.601c-2.606-.024-4.266-1.162-4.286-2.47-.002-.118.056-5.858-.002-5.914Z" fill="#00618A"/><path d="M35.645 38.168h7.578c.886 0 1.748-.185 2.433-.507 1.14-.523 1.698-1.233 1.698-2.162v-1.926c0-.76-.633-1.47-1.875-1.943-.659-.254-1.47-.389-2.255-.389H40.03c-1.064 0-1.57-.32-1.697-1.03-.026-.085-.026-.157-.026-.237v-1.2c0-.067 0-.135.026-.22.126-.54.405-.692 1.343-.78.076 0 .177-.018.254-.018h7.526V26h-7.4c-1.064 0-1.622.067-2.129.22-1.572.49-2.257 1.27-2.257 2.622v1.538c0 1.183 1.344 2.196 3.599 2.433.254.016.507.033.76.033h2.737c.102 0 .203 0 .279.017.836.068 1.191.22 1.444.524a.618.618 0 0 1 .204.469v1.537c0 .186-.127.423-.38.625-.229.203-.609.338-1.116.372-.101 0-.177.017-.278.017h-7.274v1.761Zm28.15-3.058c0 1.808 1.343 2.822 4.055 3.025.253.02.506.03.76.033h6.868v-1.757H68.56c-1.545 0-2.129-.389-2.129-1.318v-9.09h-2.635v9.107Zm-14.76.092v-6.264c0-1.591 1.118-2.557 3.327-2.861.236-.034.473-.05.711-.051h5.003c.247 0 .493.017.737.05 2.21.305 3.326 1.27 3.326 2.862v6.264c0 1.29-.474 1.982-1.568 2.432l2.596 2.344h-3.06l-2.1-1.896-2.115.134h-2.819c-.482 0-.99-.068-1.549-.22-1.68-.458-2.489-1.338-2.489-2.794Zm2.845-.157c0 .085.026.17.051.272.157.728.838 1.134 1.875 1.134h2.395L54 34.465h3.06l1.915 1.732c.353-.188.586-.477.664-.847.025-.084.025-.169.025-.253V29.09c0-.068 0-.157-.025-.237-.157-.677-.839-1.067-1.854-1.067H53.81c-1.172 0-1.93.508-1.93 1.304v5.96-.006Z" fill="#E48E00"/><path d="M77.797 23.088c-1.62-.043-2.858.107-3.916.553-.3.127-.78.13-.829.507.165.173.191.432.322.645.253.409.68.957 1.06 1.243.416.314.844.65 1.29.922.793.484 1.678.76 2.442 1.244.45.285.897.645 1.336.967.216.16.363.407.644.507v-.046c-.148-.189-.186-.448-.322-.645l-.599-.599c-.586-.78-1.329-1.46-2.12-2.027-.63-.452-2.04-1.063-2.303-1.797l-.046-.046c.447-.05.97-.212 1.383-.322.693-.186 1.312-.138 2.027-.322l.968-.277v-.184c-.362-.372-.62-.863-1.014-1.198-1.03-.879-2.157-1.756-3.316-2.488-.643-.407-1.438-.67-2.12-1.014-.228-.116-.631-.176-.782-.369-.358-.456-.553-1.035-.83-1.562a59.37 59.37 0 0 1-1.658-3.501c-.35-.8-.578-1.587-1.013-2.304-2.092-3.439-4.344-5.515-7.831-7.555-.743-.433-1.636-.605-2.58-.829L56.47 2.5c-.31-.129-.632-.508-.923-.691-1.155-.731-4.119-2.318-4.975-.235-.54 1.318.808 2.603 1.29 3.271.338.469.772.994 1.013 1.52.16.347.187.694.323 1.06.335.899.626 1.884 1.06 2.718.218.422.46.867.736 1.244.17.232.462.334.507.691-.284.399-.3 1.016-.46 1.52-.72 2.271-.45 5.093.598 6.773.322.516 1.078 1.622 2.12 1.198.91-.371.702-1.52.967-2.534.058-.23.023-.398.138-.553v.046l.83 1.659c.613.988 1.703 2.021 2.625 2.718.479.362.86.987 1.474 1.198v-.046h-.046c-.12-.188-.307-.265-.46-.414-.361-.354-.762-.793-1.06-1.198-.84-1.14-1.582-2.386-2.258-3.685-.322-.62-.603-1.304-.875-1.935-.104-.243-.103-.611-.322-.737-.298.462-.737.836-.967 1.382-.37.872-.417 1.937-.553 3.04-.08.03-.045.01-.092.047-.642-.155-.867-.816-1.106-1.383-.603-1.433-.715-3.74-.184-5.39.137-.426.758-1.77.507-2.165-.12-.393-.516-.625-.738-.921a7.253 7.253 0 0 1-.737-1.29c-.493-1.117-.724-2.371-1.243-3.501-.249-.54-.668-1.086-1.014-1.563-.382-.531-.81-.923-1.105-1.562-.106-.229-.249-.594-.092-.83a.363.363 0 0 1 .276-.276c.267-.206 1.012.068 1.29.184.738.307 1.355.6 1.981 1.014.301.195.605.584.968.691h.414c.648.15 1.375.047 1.98.23 1.071.326 2.03.833 2.902 1.383 2.656 1.676 4.827 4.063 6.312 6.914.239.458.342.896.552 1.382.425.976.96 1.99 1.382 2.948.422.957.833 1.922 1.429 2.718.313.418 1.523.643 2.073.875.385.163 1.016.333 1.382.553.697.42 1.373.921 2.027 1.382.327.23 1.332.736 1.382 1.152l-.001-.013Z" fill="#00618A"/><path fill-rule="evenodd" clip-rule="evenodd" d="M57.206 5.537a3.278 3.278 0 0 0-.83.092v.046h.046c.161.331.446.544.645.83l.46.967.047-.046c.285-.202.416-.523.414-1.014-.114-.12-.131-.271-.23-.415-.132-.191-.391-.3-.553-.46Z" fill="#00618A"/><path fill-rule="evenodd" clip-rule="evenodd" d="M76.715 36.361c0 1.16.917 1.942 1.942 1.942 1.026 0 1.943-.782 1.943-1.942s-.917-1.942-1.943-1.942c-1.025 0-1.942.782-1.942 1.942Zm3.45 0c0 .88-.674 1.538-1.508 1.538-.844 0-1.508-.657-1.508-1.538 0-.88.663-1.538 1.508-1.538.834 0 1.507.658 1.507 1.538Zm-.985 1.109h.435l-.637-.974c.342-.036.6-.202.6-.606 0-.45-.285-.637-.833-.637h-.865v2.217h.373v-.958h.347l.58.958Zm-.927-1.27v-.637h.43c.222 0 .492.042.492.301 0 .31-.244.337-.524.337h-.398Z" fill="#E48E00"/></g><defs><clipPath id="a"><path fill="#fff" transform="translate(.6 .414)" d="M0 0h80v41.563H0z"/></clipPath></defs></svg>