<svg width="41" height="41" fill="none" xmlns="http://www.w3.org/2000/svg"><g clip-path="url(#a)"><path d="M27.319 14.322 22.9 15.765l-3.843 1.696-1.075.284c-.274.26-.56.524-.871.791-.34.294-.658.561-.902.755-.27.213-.671.614-.875.868-.304.38-.544.784-.647 1.095-.184.56-.094 1.128.26 1.653.454.668 1.359 1.349 2.414 1.813.538.237 1.443.54 2.124.71 1.131.288 3.322.599 4.527.645.244.01.571.01.584 0 .027-.016.214-.374.431-.818.742-1.512 1.276-2.931 1.566-4.143.174-.735.31-1.713.4-2.872.024-.324.034-1.409.014-1.776a12.463 12.463 0 0 0-.167-1.566c-.013-.07-.016-.134-.01-.137.014-.01.054-.023.598-.18l-.11-.26Zm-1.008.591c.04 0 .146 1.025.173 1.673a.89.89 0 0 1-.003.227c-.027 0-.565-.317-.949-.557a25.41 25.41 0 0 1-1.068-.712c-.033-.023-.03-.026.244-.12.464-.157 1.566-.51 1.603-.51Zm-2.251.742c.03 0 .107.043.29.157.688.43 1.623.951 2.024 1.125.123.053.137.033-.147.227-.608.414-1.366.821-2.294 1.232-.163.073-.3.13-.304.13a.869.869 0 0 1 .04-.184c.224-.831.35-1.672.358-2.347.003-.334.003-.334.033-.344-.007.004-.003.004 0 .004Zm-.464.177c.02.02.007.767-.02.971a8.493 8.493 0 0 1-.384 1.686c-.014.017-.47-.43-.621-.604-.26-.3-.464-.601-.615-.895-.076-.15-.197-.444-.186-.454.053-.037 1.813-.718 1.826-.705Zm-2.184.858c.004 0 .007 0 .01.003.007.007.03.06.05.12.107.29.348.718.555.992a5.658 5.658 0 0 0 .934.971c.02.02.027.017-.517.224-.631.24-1.319.48-2.107.735l-.564.183c-.03.01-.02-.006.067-.143.39-.611.985-1.81 1.319-2.658.056-.147.113-.294.123-.327.013-.047.03-.064.073-.087.024-.007.047-.013.057-.013Zm-.668.277c.01.006-.16.364-.327.69a25.89 25.89 0 0 1-1.152 2.008c-.08.13-.157.25-.167.263-.016.024-.023.017-.076-.086a3.06 3.06 0 0 1-.257-.775c-.05-.26-.04-.715.016-.995.044-.207.04-.204.14-.254.428-.217 1.81-.865 1.823-.851Zm5.76.234v.14c0 .744-.08 1.766-.197 2.51-.02.13-.037.238-.04.241l-.21-.06a8.612 8.612 0 0 1-1.536-.658c-.324-.177-.795-.467-.782-.48.004-.004.144-.077.308-.164.654-.34 1.282-.708 1.826-1.072.204-.137.51-.357.578-.417l.053-.04Zm-8.28.988c.013 0 .01.026-.01.147-.014.087-.03.247-.037.357-.027.487.053.848.294 1.342.066.137.12.25.116.254-.023.02-2.233.668-2.928.858l-.4.11c-.024.007-.027.004-.017-.053.077-.491.45-1.132.971-1.673.348-.36.625-.57 1.099-.841.34-.194.865-.485.905-.498 0-.003.003-.003.007-.003Zm5.208.931c.004-.003.084.04.18.097.715.414 1.71.798 2.558.995l.077.017-.107.06c-.444.247-1.903.855-3.396 1.412-.217.08-.43.16-.47.177a.24.24 0 0 1-.077.024c0-.004.06-.12.137-.264.417-.781.838-1.733 1.052-2.394.026-.064.043-.12.046-.124Zm-.53.174a.96.96 0 0 1-.057.154c-.29.704-.671 1.472-1.159 2.334a8.81 8.81 0 0 1-.23.397c-.004 0-.104-.06-.224-.134-.708-.434-1.336-.968-1.746-1.486l-.06-.073.303-.084a21.811 21.811 0 0 0 2.932-1.011c.13-.054.237-.097.24-.097Zm3.298 1.152c.004.077-.167.764-.307 1.262a36.31 36.31 0 0 1-.554 1.786.223.223 0 0 1-.044-.01c-.991-.18-1.88-.43-2.714-.764a7.881 7.881 0 0 1-.588-.26c-.006-.008.194-.1.448-.211 1.519-.665 3.095-1.42 3.636-1.743a.436.436 0 0 1 .123-.06Zm-7.616.26c.007.007-.417.618-1.011 1.45l-.538.757c-.09.127-.227.328-.304.448l-.14.217-.15-.127a5.56 5.56 0 0 1-.621-.634c-.288-.358-.481-.735-.558-1.079-.037-.16-.037-.24-.004-.25.05-.014.942-.224 1.777-.418a150.461 150.461 0 0 0 1.55-.364Zm.428.164.106.12c.481.538.972.935 1.566 1.282.107.06.187.114.18.117-.023.017-2.063.741-3.008 1.069-.53.187-.968.337-.971.337a.58.58 0 0 1-.067-.044l-.06-.043.097-.14c.313-.454.707-.952 1.566-1.987l.59-.711Zm2.664 1.906c.003-.003.15.05.33.117.435.164.779.267 1.24.384.567.144 1.388.284 1.873.324.073.007.113.014.1.024-.024.013-.515.177-.875.29a237.321 237.321 0 0 1-4.26 1.252c-.034.007-.144-.023-.144-.037 0-.006.08-.11.177-.223.48-.575.958-1.216 1.355-1.823.11-.167.204-.304.204-.308Zm-.588.017c.004.004-.233.384-.647 1.039-.177.277-.374.59-.444.7-.067.108-.167.275-.224.368l-.097.17-.05-.013c-.12-.033-.965-.33-1.189-.42a8.279 8.279 0 0 1-.778-.358c-.267-.144-.6-.357-.574-.364.007-.003.464-.127 1.015-.277 1.462-.397 2.274-.628 2.805-.795.097-.03.18-.053.183-.05Zm4.157.975h.004c.013.034-.528 1.536-.725 2.01-.043.107-.06.134-.083.13a68.294 68.294 0 0 1-1.32-.183 60.973 60.973 0 0 1-2.577-.451l-.08-.017.497-.113c1.069-.24 1.583-.37 2.104-.531.658-.2 1.309-.45 1.967-.758.103-.047.19-.084.213-.087Z" fill="url(#b)"/><path d="M22.765 4.025c-.074-.01-1.26.417-2.024.728-1.032.42-1.833.821-2.327 1.169-.184.13-.414.36-.45.45a.311.311 0 0 0-.02.114l.447.424 1.065.34 2.534.455 2.898.497.03-.25c-.01 0-.017-.004-.026-.004l-.381-.06-.077-.137a25.855 25.855 0 0 1-1.082-2.137c-.197-.45-.384-.971-.487-1.345-.057-.227-.064-.24-.1-.244Zm-.054.17h.004c.003.004.016.097.03.207.056.468.16.919.323 1.406.124.367.124.347-.02.304-.34-.094-1.866-.357-2.971-.51a4.4 4.4 0 0 1-.328-.051c-.013-.013.799-.437 1.156-.604.457-.21 1.713-.735 1.806-.752Zm-3.219 1.496.13.044c.708.24 2.488.58 3.47.66l.207.02c.003.004-.09.054-.21.111-.475.237-.996.528-1.356.751-.107.067-.204.12-.217.12-.014 0-.084-.013-.157-.023l-.134-.02-.334-.327c-.587-.571-1.048-1.012-1.225-1.179l-.174-.157Zm-.133.104.47.587c.258.324.518.641.575.712.057.07.103.126.1.13-.013.01-.681-.12-1.035-.2a8.422 8.422 0 0 1-.738-.194l-.184-.06v-.047c.004-.224.288-.558.768-.898l.044-.03Zm4 .801c.013 0 .03.03.07.12.114.25.468.925.554 1.055.027.044.074.047-.397-.03-1.132-.183-1.496-.243-1.496-.25 0-.003.034-.027.077-.05a6.52 6.52 0 0 0 1.018-.705l.16-.133c.004-.007.01-.01.014-.007Z" fill="url(#c)"/><path d="M17.986 6.326s-.073.117-.003.29c.044.107.17.237.314.37 0 0 1.486 1.45 1.666 1.657.822.948 1.179 1.883 1.212 3.172.02.828-.137 1.556-.527 2.4-.695 1.517-2.16 3.19-4.421 5.046l.33-.11c.214-.16.505-.33 1.186-.705 1.572-.861 3.342-1.653 5.512-2.467 3.126-1.176 8.264-2.551 11.189-2.999l.304-.047-.047-.073c-.267-.414-.45-.671-.671-.945-.641-.795-1.419-1.439-2.37-1.973-1.31-.731-3.002-1.302-5.146-1.726a57.595 57.595 0 0 0-2.013-.344c-1.53-.237-2.518-.401-3.606-.588-.391-.067-.975-.167-1.363-.25a8.653 8.653 0 0 1-.884-.237c-.24-.094-.588-.188-.662-.471Zm.862.834c.003-.003.057.017.127.04.127.044.29.094.484.147.146.04.293.08.44.117.201.05.368.097.371.097.024.023.36 1.102.474 1.516.044.157.077.29.074.29a.678.678 0 0 1-.084-.13c-.39-.688-1.008-1.385-1.723-1.946a1.429 1.429 0 0 1-.163-.13Zm1.643.455c.016 0 .09.01.18.03.568.126 1.586.32 2.237.43.11.017.197.037.197.044 0 .006-.04.03-.09.056-.11.057-.554.321-.701.421-.37.247-.705.514-.945.755-.097.097-.18.177-.18.177s-.02-.057-.037-.127c-.12-.464-.37-1.152-.598-1.636a1.44 1.44 0 0 1-.067-.154c0 .007 0 .004.004.004Zm2.891.55c.02.007.054.12.12.371a5.47 5.47 0 0 1 .14 1.816l-.01.034-.173-.057a52.867 52.867 0 0 0-1.436-.424 5.695 5.695 0 0 1-.514-.154c0-.02.414-.434.591-.59.337-.298 1.252-1.006 1.282-.996Zm.23.034c.01-.01 1.383.227 2.007.347.464.09 1.139.23 1.179.247.02.007-.05.047-.274.147-.881.397-1.536.755-2.187 1.189-.17.113-.314.207-.317.207-.003 0-.007-.097-.007-.214 0-.634-.127-1.275-.36-1.816a.504.504 0 0 1-.04-.107Zm3.55.701c.01.01-.034.28-.074.44-.12.498-.444 1.236-.841 1.93-.07.124-.134.224-.14.228a1.433 1.433 0 0 1-.2-.107 10.85 10.85 0 0 0-1.31-.641c-.133-.057-.25-.104-.253-.11-.024-.02 1.051-.732 1.62-1.072.45-.274 1.184-.681 1.198-.668Zm.254.04c.03 0 .637.167.954.26.785.234 1.687.565 2.274.832l.244.11-.17.04c-1.436.33-2.665.711-3.85 1.192-.097.04-.184.074-.19.074a.863.863 0 0 1 .07-.17c.357-.759.587-1.55.644-2.224.004-.064.014-.114.024-.114Zm-6.05 1.39c.01-.01.474.1.724.17.38.106 1.189.377 1.189.397 0 .003-.09.08-.197.173-.438.364-.858.748-1.363 1.236-.15.143-.277.26-.283.26-.007 0-.01-.02-.007-.047.077-.56.06-1.282-.047-2.013-.01-.094-.02-.174-.017-.177Zm9.753.01c.006.006-.214.353-.354.55-.2.287-.495.668-1.16 1.503-.35.44-.744.938-.874 1.105-.134.167-.244.307-.247.307-.003 0-.047-.06-.093-.134a6.898 6.898 0 0 0-1.353-1.492c-.1-.084-.21-.174-.247-.2a.376.376 0 0 1-.067-.057c0-.01.568-.254.999-.428a34.238 34.238 0 0 1 2.554-.911c.404-.127.835-.25.841-.244Zm.257.066a.769.769 0 0 1 .19.093 11.324 11.324 0 0 1 2.841 2.308s-.153.013-.334.026c-1.405.107-3.205.404-4.934.822a6.66 6.66 0 0 1-.227.05c-.007 0 .123-.13.287-.287 1.015-.979 1.479-1.596 2.026-2.698.077-.164.144-.304.15-.314-.003 0-.003 0 0 0Zm-7.436.761c.046.01.48.214.808.377.3.15.751.391.774.411a4.75 4.75 0 0 1-.353.184 23.23 23.23 0 0 0-1.727.951c-.16.097-.294.177-.297.177-.013 0-.01-.013.08-.177.3-.547.541-1.202.678-1.84.013-.05.027-.083.037-.083Zm-.434.08c.01.01-.104.421-.174.645a8.215 8.215 0 0 1-.59 1.355l-.178.308-.083.133-.187-.18a2.452 2.452 0 0 0-.621-.458.891.891 0 0 1-.16-.093c0-.027.57-.544 1.008-.918.314-.27.975-.802.985-.792Zm2.654 1.092.164.107c.374.244.814.568 1.152.851.19.157.557.488.63.568l.04.043-.27.077c-1.529.424-2.71.802-4.09 1.31a4.8 4.8 0 0 1-.294.103c-.02 0-.036.016.308-.301.881-.811 1.662-1.706 2.243-2.578l.117-.18Zm-.698.174c.007.006-.45.65-.724 1.015a45.216 45.216 0 0 1-1.31 1.636c-.166.197-.31.36-.316.364-.01.003-.014-.047-.014-.124a2.8 2.8 0 0 0-.283-1.202c-.077-.153-.09-.19-.074-.207.064-.057 1.035-.61 1.65-.941.414-.22 1.061-.548 1.071-.541Zm-4.22 1.035a3.668 3.668 0 0 1 .748.474c.006.007-.08.077-.194.16a31.14 31.14 0 0 0-1.078.815c-.294.234-.304.24-.27.19.22-.337.33-.527.447-.771.103-.217.207-.474.28-.698a.565.565 0 0 1 .067-.17Zm1.125.881c.017-.003.037.027.127.16.19.284.337.665.374.972l.007.067-.458.177c-.818.317-1.572.631-2.083.865-.144.066-.394.187-.558.267a4.278 4.278 0 0 1-.297.143c0-.003.104-.08.23-.173.999-.725 1.864-1.52 2.511-2.314.07-.084.134-.16.14-.164h.007Zm-.517.127c.013.014-.368.444-.628.708a11.075 11.075 0 0 1-2.074 1.673l-.2.127c-.023.013.007-.02.354-.398.22-.237.387-.437.578-.684a1.13 1.13 0 0 1 .334-.317c.49-.354 1.622-1.122 1.636-1.109Z" fill="url(#d)"/><path d="M7.391 28.381c-.062 0-.123.006-.184.006-1.244.067-2.083.614-2.574 1.683-.42.967-.374 2.231.005 3.204.44.95 1.151 1.453 2.338 1.642.251.041.42.18.906.747l.599.701h1.085l-.721-.727c-.4-.4-.722-.747-.722-.777 0-.03.152-.098.337-.154.61-.184 1.115-.655 1.469-1.376.286-.58.327-.758.368-1.479.108-2.145-1.023-3.485-2.906-3.47Zm.952 5.61c-.528.255-1.295.306-1.796.122-.517-.19-1.018-.727-1.244-1.336-.25-.665-.215-1.893.072-2.446.46-.88 1.07-1.285 1.96-1.285 1.32 0 2.071.809 2.17 2.329.077 1.269-.348 2.22-1.162 2.615Zm18.753-3.777c-.455 0-.804.184-1.039.547l-.184.288V30.3h-.788v4.483h.788v-1.433c0-1.31.016-1.463.199-1.822.252-.492.687-.737 1.106-.62l.282.083v-.777h-.364v-.002Zm-4.63-.042c-.154 0-.318.02-.481.057-1.055.276-1.649 1.285-1.613 2.324 0 .87.17 1.304.589 1.76.86.705 1.637.761 2.686.383.18-.076.374-.164.374-.164v-.705l-.374.193c-.849.37-1.488.37-2-.066-.327-.332-.471-.731-.538-1.187h3.178v-.604c0-1.232-.742-2.01-1.822-1.99h.001Zm-1.285 1.966s.117-.768.553-1.07c.21-.148.45-.22.685-.22.236 0 .471.077.666.225.399.307.465 1.06.465 1.06h-2.369v.005Zm-19-.808c-.853-.518-1.233-.891-1.186-1.331.132-1.218 1.637-1.05 2.47-.589l.006-.819s-.46-.2-1.12-.21c-1.013-.015-1.668.317-1.975.993-.45.997-.052 1.75 1.39 2.589.81.47 1.168.88 1.168 1.326 0 .921-1.11 1.243-2.257.665a9.023 9.023 0 0 0-.446-.216c-.04.262-.02.886-.02.886s.353.148.88.25c1.31.261 2.502-.353 2.615-1.35.098-.937-.24-1.428-1.524-2.195Zm31.89-1.168c-.154 0-.317.02-.487.057-1.054.275-1.647 1.285-1.606 2.323 0 .869.168 1.3.588 1.755.86.706 1.637.763 2.691.384.179-.076.373-.163.373-.163v-.707l-.373.195c-.851.369-1.49.369-2.001-.067-.329-.332-.471-.726-.538-1.187h3.172v-.604c0-1.227-.741-2.006-1.821-1.985l.002-.001Zm-1.285 1.966s.118-.768.553-1.075c.209-.149.45-.22.685-.22.234 0 .471.076.665.225.4.307.466 1.064.466 1.064h-2.369v.006ZM18.34 31.34c-.855-.517-1.233-.891-1.187-1.331.133-1.219 1.637-1.05 2.47-.589l.007-.82s-.461-.199-1.121-.208c-1.013-.015-1.668.317-1.975.993-.45.997-.046 1.75 1.392 2.589.808.47 1.166.874 1.166 1.32 0 .922-1.11 1.248-2.256.665a7.55 7.55 0 0 0-.446-.214c-.041.26-.02.886-.02.886s.348.142.874.25c1.311.262 2.504-.352 2.616-1.35.097-.932-.24-1.423-1.52-2.19v-.001Zm20.36-1.137c-.455 0-.808.185-1.038.548l-.185.286v-.746h-.788v4.482h.788V33.34c0-1.31.016-1.464.2-1.822.252-.49.686-.736 1.105-.619l.282.083v-.78h-.364Zm-26.627 1.11v-2.855h-.795v6.325h3.342v-.747h-2.547v-2.722Zm18.374.89-.655 1.705-.63-1.714-.64-1.898h-.813c.527 1.494 1.1 3.013 1.679 4.487.25.006.501 0 .752 0l.884-2.22.901-2.267h-.777s-.344.9-.702 1.909v-.001Zm-16.543-5.468a.435.435 0 0 0 .322-.13.428.428 0 0 0 .133-.316.42.42 0 0 0-.133-.317.441.441 0 0 0-.317-.123.435.435 0 0 0-.45.445.431.431 0 0 0 .445.44Zm-.282-.728a.383.383 0 0 1 .287-.111c.112 0 .205.035.282.111a.383.383 0 0 1 .117.282.394.394 0 0 1-.399.399.394.394 0 0 1-.399-.399c0-.113.036-.205.112-.282Zm.19.323h.051c.036 0 .072.035.103.102l.061.139h.097l-.076-.154c-.031-.062-.062-.098-.097-.108a.186.186 0 0 0 .106-.056c.026-.026.036-.062.036-.103 0-.047-.015-.082-.046-.108-.035-.029-.092-.045-.165-.045h-.163v.573h.082v-.24h.01Zm0-.266h.071c.052 0 .088.01.108.025.02.016.025.036.025.072 0 .066-.041.097-.118.097h-.088v-.194h.001Zm-13.125.215c0-.2-.006-.348-.01-.436h.004c.02.104.046.18.066.232l.763 1.704h.128l.763-1.72c.02-.046.041-.117.066-.215h.006c-.015.17-.02.318-.02.436v1.504h.26v-2.236h-.327l-.701 1.555a8.387 8.387 0 0 0-.107.276h-.011a1.79 1.79 0 0 0-.102-.265l-.685-1.571H.433v2.236h.25V26.28l.005-.001Zm2.599.004h.225v1.392h-.225v-1.392Zm.113-.51a.159.159 0 0 0 .117-.047.163.163 0 0 0 .052-.118.147.147 0 0 0-.051-.117.164.164 0 0 0-.119-.047.16.16 0 0 0-.117.047.165.165 0 0 0-.052.117c0 .051.016.087.052.118a.17.17 0 0 0 .117.047Zm1.719 1.933v-.245a.648.648 0 0 1-.393.138.51.51 0 0 1-.395-.165.636.636 0 0 1-.149-.44.66.66 0 0 1 .159-.465.515.515 0 0 1 .399-.169c.133 0 .26.042.379.124v-.261a.78.78 0 0 0-.369-.082c-.255 0-.455.082-.604.24-.148.159-.224.374-.224.634 0 .231.066.425.204.574.144.152.328.23.553.23a.902.902 0 0 0 .44-.113Zm.645-.742c0-.184.04-.332.117-.434a.321.321 0 0 1 .261-.139c.087 0 .149.016.194.052v-.267a.407.407 0 0 0-.153-.02.39.39 0 0 0-.246.088.54.54 0 0 0-.173.27h-.006v-.327h-.255v1.596h.256v-.82h.005Zm1.469.85c.24 0 .434-.077.578-.23.143-.153.214-.359.214-.614 0-.261-.065-.461-.2-.61-.132-.148-.316-.22-.557-.22-.24 0-.434.072-.578.21-.153.153-.234.368-.234.645 0 .24.065.44.204.588.143.154.333.231.573.231Zm-.364-1.3a.504.504 0 0 1 .384-.154c.164 0 .287.052.379.154.092.108.138.26.138.466 0 .194-.042.348-.128.45a.466.466 0 0 1-.384.165.499.499 0 0 1-.39-.165c-.096-.108-.142-.256-.142-.45a.627.627 0 0 1 .143-.466Zm2.277 1.162a.42.42 0 0 0 .149-.328.4.4 0 0 0-.118-.292.907.907 0 0 0-.297-.173.93.93 0 0 1-.24-.133.219.219 0 0 1-.067-.165c0-.066.026-.117.076-.158a.315.315 0 0 1 .206-.061c.137 0 .255.036.363.113v-.256a.75.75 0 0 0-.343-.076.609.609 0 0 0-.405.133.409.409 0 0 0-.158.332c0 .117.035.215.102.286a.826.826 0 0 0 .286.179c.128.056.215.107.261.148a.195.195 0 0 1 .067.153c0 .149-.103.226-.302.226a.633.633 0 0 1-.415-.153v.276a.754.754 0 0 0 .393.098c.19-.01.338-.057.44-.149h.002Zm1.218-1.536c-.24 0-.434.072-.578.21-.153.153-.235.368-.235.645 0 .24.066.44.204.588.144.154.333.231.574.231.246 0 .434-.077.578-.231.143-.153.215-.358.215-.614 0-.261-.067-.46-.2-.61-.138-.148-.322-.22-.557-.22l-.001.001Zm.496.84c0 .194-.04.348-.128.45a.466.466 0 0 1-.383.165.499.499 0 0 1-.39-.165c-.096-.108-.143-.256-.143-.45 0-.206.051-.364.154-.471a.505.505 0 0 1 .384-.154c.158 0 .286.052.378.154.082.113.128.266.128.47Zm.692.798h.255v-1.382h.374v-.215h-.374v-.246c0-.224.087-.337.266-.337.06 0 .122.015.168.041v-.23a.467.467 0 0 0-.184-.025.476.476 0 0 0-.343.128.538.538 0 0 0-.164.414v.262h-.27v.214h.27v1.377h.002Zm1.048-.435c0 .312.138.471.42.471a.461.461 0 0 0 .24-.053v-.22a.267.267 0 0 1-.164.052c-.087 0-.148-.02-.184-.067-.036-.045-.057-.123-.057-.23v-.9h.405v-.215h-.405v-.47c-.088.03-.174.056-.255.081v.389h-.276v.215h.276v.946Zm27.463 2.942a.44.44 0 0 0-.317-.123.432.432 0 0 0-.323.129.43.43 0 0 0-.128.317c0 .128.041.235.127.317a.45.45 0 0 0 .323.123.44.44 0 0 0 .323-.128.443.443 0 0 0-.006-.635Zm-.041.605a.379.379 0 0 1-.282.11.382.382 0 0 1-.282-.11.398.398 0 0 1-.117-.288c0-.112.035-.204.113-.282a.38.38 0 0 1 .286-.111.387.387 0 0 1 .4.393c-.001.119-.036.21-.118.288Zm-.23-.262a.221.221 0 0 0 .107-.056c.026-.026.035-.062.035-.103 0-.046-.014-.082-.045-.108-.036-.029-.093-.045-.165-.045h-.163v.573h.082v-.24h.051c.035 0 .07.034.102.101l.061.138h.098l-.076-.154c-.027-.066-.057-.097-.088-.107v.001Zm-.057-.051h-.088v-.194h.072c.051 0 .087.01.108.025.02.016.025.035.025.072 0 .066-.041.097-.117.097ZM25.46 26.115h.071v-.573h.19v-.072h-.45v.072h.189v.573Zm.434-.43c0-.056 0-.102-.004-.128.005.03.015.051.02.067l.22.491h.035l.22-.496c.007-.015.011-.035.021-.062-.004.051-.004.092-.004.123v.435h.076v-.645h-.092l-.2.445c-.004.016-.02.047-.03.082h-.006c-.004-.02-.015-.04-.03-.076l-.199-.45h-.103v.645h.072v-.43l.004-.002Z" fill="#231F1F"/></g><defs><linearGradient id="b" x1="17.918" y1="23.901" x2="19.516" y2="22.957" gradientUnits="userSpaceOnUse"><stop stop-color="#909CA9"/><stop offset="1" stop-color="#EDEDEE"/></linearGradient><linearGradient id="c" x1="17.955" y1="6.107" x2="19.24" y2="6.107" gradientUnits="userSpaceOnUse"><stop stop-color="#939FAB"/><stop offset="1" stop-color="#DCDEE1"/></linearGradient><radialGradient id="d" cx="0" cy="0" r="1" gradientUnits="userSpaceOnUse" gradientTransform="rotate(-171.457 12.668 5.088) scale(1.65705 3.31493)"><stop stop-color="#EE352C"/><stop offset="1" stop-color="#A91D22"/></radialGradient><clipPath id="a"><path fill="#fff" transform="translate(.2 .195)" d="M0 0h40v40H0z"/></clipPath></defs></svg>