<svg width="40" height="41" fill="none" xmlns="http://www.w3.org/2000/svg"><path d="M28.99 4.247H7.029a2.684 2.684 0 0 0-2.676 2.677v24.22a2.684 2.684 0 0 0 2.676 2.676h14.465c-.165-7.198 2.294-21.165 7.496-29.573Z" fill="#0F80CC"/><path d="M28.192 5.029H7.03a1.898 1.898 0 0 0-1.895 1.895v22.452a52.513 52.513 0 0 1 16.961-3.355A154.469 154.469 0 0 1 28.193 5.03Z" fill="url(#a)"/><path d="M34.112 3.455c-1.5-1.341-3.325-.803-5.125.792-.266.238-.532.5-.797.782a31.75 31.75 0 0 0-6.815 13.916c.336.732.601 1.495.793 2.277.044.175.086.34.125.48.077.332.125.547.125.547s-.028-.104-.142-.433l-.073-.212a2.593 2.593 0 0 0-.048-.118c-.2-.466-.75-1.45-1-1.875a46.048 46.048 0 0 0-.547 1.714 15.16 15.16 0 0 1 1.134 3.5s-.037-.144-.213-.644a23.834 23.834 0 0 0-1.125-2.135 5.045 5.045 0 0 0-.33 2.155c.275.549.482 1.13.616 1.729.418 1.604.707 3.557.707 3.557l.026.33a32.68 32.68 0 0 0 .08 4.005c.063 1.32.308 2.624.73 3.875l.226-.125a17.321 17.321 0 0 1-.598-5.785 44.086 44.086 0 0 1 2.423-12.11c2.512-6.635 6-11.96 9.187-14.5-2.907 2.625-6.842 11.125-8.021 14.273a57.075 57.075 0 0 0-2.817 10 7.764 7.764 0 0 1 4.105-4.255s1.54-1.901 3.342-4.616a32.746 32.746 0 0 0-3.444.916c-.875.367-1.111.492-1.111.492a29.928 29.928 0 0 1 5.269-2.508c3.345-5.27 6.99-12.75 3.32-16.03" fill="#003B57"/><defs><linearGradient id="a" x1="16.636" y1="5.578" x2="16.636" y2="28.076" gradientUnits="userSpaceOnUse"><stop stop-color="#97D9F6"/><stop offset=".92" stop-color="#0F80CC"/><stop offset="1" stop-color="#0F80CC"/></linearGradient></defs></svg>