<svg width="41" height="41" fill="none" xmlns="http://www.w3.org/2000/svg"><path d="M38.167 20.39c0 9.66-7.832 17.5-17.5 17.5-9.67 0-17.5-7.84-17.5-17.5 0-9.67 7.83-17.5 17.5-17.5 9.668 0 17.5 7.83 17.5 17.5Z" fill="#E95420"/><path d="M9.194 18.085c-1.263 0-2.277 1.038-2.277 2.309 0 1.271 1.023 2.309 2.277 2.309 1.253 0 2.276-1.038 2.276-2.309 0-1.28-1.023-2.309-2.276-2.309Zm16.262 10.49c-1.091.64-1.458 2.05-.836 3.156a2.259 2.259 0 0 0 3.113.848c1.092-.64 1.458-2.05.836-3.157-.64-1.098-2.03-1.478-3.113-.847ZM14.14 20.394a6.75 6.75 0 0 1 2.83-5.517l-1.662-2.828a10.071 10.071 0 0 0-4.093 5.828 3.273 3.273 0 0 1 1.177 2.517c0 1.012-.461 1.92-1.177 2.517a10.034 10.034 0 0 0 4.093 5.828l1.663-2.828a6.75 6.75 0 0 1-2.831-5.517Zm6.651-6.745c3.48 0 6.328 2.698 6.627 6.148l3.249-.052a10.045 10.045 0 0 0-2.943-6.503 3.172 3.172 0 0 1-2.728-.225 3.24 3.24 0 0 1-1.561-2.291 9.908 9.908 0 0 0-2.644-.364 9.698 9.698 0 0 0-4.383 1.038l1.586 2.871a6.567 6.567 0 0 1 2.797-.623Zm0 13.49a6.637 6.637 0 0 1-2.805-.622l-1.586 2.87a9.723 9.723 0 0 0 4.383 1.038c.912 0 1.8-.13 2.643-.363a3.233 3.233 0 0 1 1.561-2.291 3.145 3.145 0 0 1 2.729-.225 10.087 10.087 0 0 0 2.942-6.503l-3.249-.052c-.29 3.442-3.138 6.148-6.618 6.148Zm4.657-14.935c1.091.64 2.481.26 3.112-.847a2.326 2.326 0 0 0-.835-3.157 2.259 2.259 0 0 0-3.113.848 2.341 2.341 0 0 0 .836 3.156Z" fill="#fff"/></svg>