<svg width="41" height="41" fill="none" xmlns="http://www.w3.org/2000/svg"><g clip-path="url(#a)"><path d="M5.946 31.703a1.667 1.667 0 0 1-1.725.27l-3.03-1.27a1.667 1.667 0 0 1-1.024-1.53V11.4a1.667 1.667 0 0 1 1.025-1.53L4.22 8.62a1.667 1.667 0 0 1 1.725.272l.679.562a.92.92 0 0 0-1.458.75V30.37a.92.92 0 0 0 1.458.75l-.68.583Z" fill="#52218A"/><path d="M1.192 30.703a1.667 1.667 0 0 1-1.025-1.53v-.137a.962.962 0 0 0 1.666.646L27.667 1.12a2.5 2.5 0 0 1 2.841-.484l8.242 3.967a2.5 2.5 0 0 1 1.417 2.254v.096a1.58 1.58 0 0 0-2.58-1.22L6.625 31.12l-.68.583a1.666 1.666 0 0 1-1.724.27l-3.03-1.27Z" fill="#6C33AF"/><path d="M1.192 9.87a1.667 1.667 0 0 0-1.025 1.529v.138a.962.962 0 0 1 1.666-.646l25.834 28.562a2.5 2.5 0 0 0 2.841.483l8.242-3.966a2.5 2.5 0 0 0 1.417-2.254v-.096a1.579 1.579 0 0 1-2.58 1.22L6.625 9.454l-.68-.583a1.667 1.667 0 0 0-1.724-.25L1.19 9.87Z" fill="#854CC7"/><path d="M30.508 39.936a2.5 2.5 0 0 1-2.841-.483 1.467 1.467 0 0 0 2.5-1.037V2.166a1.467 1.467 0 0 0-2.5-1.046 2.5 2.5 0 0 1 2.841-.484L38.75 4.6a2.5 2.5 0 0 1 1.417 2.254V33.72a2.5 2.5 0 0 1-1.417 2.254l-8.242 3.962Z" fill="#B179F1"/><path d="M28.87 40.12a2.5 2.5 0 0 0 1.638-.183l8.242-3.963a2.5 2.5 0 0 0 1.417-2.254V6.853A2.5 2.5 0 0 0 38.75 4.6L30.508.636a2.5 2.5 0 0 0-1.866-.12 2.5 2.5 0 0 0-.975.604L14.383 15.812 6.625 9.453l-.68-.583a1.667 1.667 0 0 0-1.724-.271l-3.03 1.27c-.577.24-.973.782-1.024 1.405v18.025a1.667 1.667 0 0 0 1.025 1.404l3.029 1.25a1.667 1.667 0 0 0 1.725-.27l.679-.563 7.758-6.358 13.284 14.691a2.5 2.5 0 0 0 1.204.667Zm1.297-28.3-10.33 8.466 10.33 8.467V11.82Zm-25 2.746 5.17 5.72-5.17 5.721V14.566Z" fill="url(#b)" fill-opacity=".25"/></g><defs><linearGradient id="b" x1="2000.17" y1=".487" x2="2000.17" y2="3979.65" gradientUnits="userSpaceOnUse"><stop stop-color="#fff"/><stop offset="1" stop-color="#fff" stop-opacity="0"/></linearGradient><clipPath id="a"><path fill="#fff" transform="translate(.167 .39)" d="M0 0h40v40H0z"/></clipPath></defs></svg>