<svg width="40" height="41" fill="none" xmlns="http://www.w3.org/2000/svg"><g clip-path="url(#a)"><path d="M26.252 4.286c0-1.1-1.23-1.1-1.777-.962.765-.604 1.663-.458 1.982-.274l7.392 3.624a2.06 2.06 0 0 1 1.15 1.851v23.843a2.06 2.06 0 0 1-1.177 1.864l-6.955 3.29c-.478.205-1.517.714-2.392 0 1.094.205 1.686-.573 1.777-1.1V4.287Z" fill="url(#b)"/><path d="M24.564 3.305c.58-.115 1.688-.062 1.688.98v8.208L3.842 29.446a.954.954 0 0 1-1.277-.114l-2.31-2.499a.964.964 0 0 1 .057-1.364L24.475 3.324l.089-.02Z" fill="url(#c)"/><path d="M26.252 28.353 3.842 11.4a.953.953 0 0 0-1.277.114l-2.31 2.499a.965.965 0 0 0 .057 1.364l24.163 22.145c1.094.206 1.686-.573 1.777-1.1v-8.069Z" fill="url(#d)"/></g><defs><linearGradient id="b" x1="29.738" y1="2.89" x2="29.738" y2="37.89" gradientUnits="userSpaceOnUse"><stop stop-color="#32B5F1"/><stop offset="1" stop-color="#2B9FED"/></linearGradient><linearGradient id="c" x1="26.252" y1="7.307" x2="1.277" y2="28.271" gradientUnits="userSpaceOnUse"><stop stop-color="#0F6FB3"/><stop offset=".271" stop-color="#1279B7"/><stop offset=".421" stop-color="#1176B5"/><stop offset=".618" stop-color="#0E69AC"/><stop offset=".855" stop-color="#0F70AF"/><stop offset="1" stop-color="#0F6DAD"/></linearGradient><linearGradient id="d" x1="1.444" y1="12.87" x2="26.349" y2="33.491" gradientUnits="userSpaceOnUse"><stop stop-color="#1791D2"/><stop offset="1" stop-color="#1173C5"/></linearGradient><clipPath id="a"><path fill="#fff" transform="translate(0 .39)" d="M0 0h40v40H0z"/></clipPath></defs></svg>