<svg xmlns="http://www.w3.org/2000/svg" width="51" height="50" fill="none"><g clip-path="url(#a)"><path fill="#7BBBFE" d="M23.59.098h3.898c.052.116.16.088.25.096 3.709.33 7.163 1.447 10.389 3.31 8.626 4.983 13.543 15.05 12.13 24.902-.802 5.602-3.187 10.425-7.215 14.401-3.685 3.638-8.094 5.905-13.196 6.822-.376.068-.416-.037-.416-.369.009-5.523.009-11.045 0-16.569 0-.333.075-.442.425-.438 1.59.02 3.183.007 4.774.007.67 0 .653-.002.75-.666.296-2.016.587-4.033.924-6.042.075-.441-.022-.515-.43-.512-2.014.017-4.028.004-6.041.012-.27 0-.408-.03-.404-.36.018-1.479-.017-2.958.017-4.436.05-2.192 1.165-3.415 3.323-3.71 1.165-.158 2.335-.05 3.502-.068.296-.005.385-.08.382-.383a375.084 375.084 0 0 1 0-5.409c.003-.286-.087-.41-.366-.445-2.318-.287-4.636-.591-6.975-.294-1.684.213-3.236.794-4.552 1.897-2.166 1.814-3 4.248-3.103 6.969-.071 1.865-.03 3.735-.002 5.602.006.485-.087.658-.62.646-1.753-.038-3.508 0-5.261-.024-.4-.006-.475.125-.473.492a373.19 373.19 0 0 1 0 6.286c-.003.372.105.457.463.453 1.785-.018 3.572.007 5.358-.02.43-.006.534.104.533.533-.016 5.459-.01 10.916-.01 16.374 0 .098-.007.195 0 .292.014.201-.071.256-.261.199-.108-.033-.224-.035-.336-.056-4.828-.912-9.053-3.026-12.62-6.41-4.014-3.808-6.502-8.448-7.47-13.905-.134-.76-.13-1.538-.36-2.28v-3.996c.202-.417.153-.875.215-1.315.719-5.038 2.739-9.484 6.143-13.265 3.854-4.276 8.627-6.936 14.308-7.954.775-.14 1.57-.133 2.329-.367h-.002Z"/></g><defs><clipPath id="a"><path fill="#fff" d="M.5 0h50v50H.5z"/></clipPath></defs></svg>