<svg xmlns="http://www.w3.org/2000/svg" width="51" height="50" fill="none"><g clip-path="url(#a)"><path fill="#7BBBFE" d="M.501 23.776c.128-.9.232-1.805.388-2.699 1.019-5.83 3.666-10.684 7.835-14.59C12.164 3.266 16.163 1.211 20.68.41c6.568-1.166 12.692.139 18.219 4.133 5.138 3.714 8.556 8.797 9.946 15.258 1.753 8.152.084 15.54-4.889 22.02-2.9 3.78-6.594 6.397-10.938 7.963a2.722 2.722 0 0 1-.98.148c-.555-.012-.948-.429-1.011-1.02-.032-.302-.024-.61-.023-.915.008-1.95.015-3.903.028-5.854.013-1.907-.254-3.718-1.57-5.148 1.18-.264 2.356-.461 3.498-.794 4.274-1.247 6.726-4.236 7.367-8.9.306-2.232.386-4.455-.383-6.621a9.792 9.792 0 0 0-1.66-2.95c-.175-.215-.222-.392-.137-.672.617-2.072.414-4.11-.248-6.13-.099-.3-.287-.312-.512-.319-1.23-.034-2.355.391-3.431.95-.87.453-1.693 1.011-2.55 1.494-.186.105-.45.17-.649.118-3.866-1.002-7.726-.997-11.592.003-.197.05-.469-.012-.645-.13-1.426-.94-2.88-1.806-4.522-2.248-1.745-.47-1.968-.343-2.362 1.482-.352 1.63-.354 3.256.149 4.866a.659.659 0 0 1-.1.52c-1.98 2.391-2.512 5.22-2.25 8.299.144 1.698.451 3.352 1.15 4.9 1.233 2.727 3.322 4.374 5.985 5.223 1.256.4 2.558.636 3.862.95-.658.717-1.152 1.61-1.296 2.646-.09.643-.414.854-.923 1.018-1.698.548-3.356.597-4.822-.606-.604-.495-1.099-1.175-1.542-1.847-.787-1.19-1.71-2.16-3.078-2.493-.436-.106-.916-.096-1.364-.035-.45.061-.537.397-.235.764.176.214.384.418.612.562 1.307.825 2.202 2.045 2.707 3.517 1.061 3.095 3.835 4.316 6.681 4.04.554-.053 1.104-.143 1.745-.229 0 .607-.003 1.212 0 1.816.005.747.023 1.494.025 2.24.002 1.249-.747 1.847-1.86 1.449-3.942-1.411-7.344-3.73-10.176-6.973-3.228-3.698-5.25-8.042-6.076-13.01-.141-.847-.222-1.704-.33-2.555v-3.565l.002.001Z"/></g><defs><clipPath id="a"><path fill="#fff" d="M.5 0h50v50H.5z"/></clipPath></defs></svg>