<svg xmlns="http://www.w3.org/2000/svg" width="51" height="50" fill="none"><path fill="#7BBBFE" d="M1.182 25.035C1.186 11.578 12.125.661 25.598.682c13.423.021 24.38 10.942 24.315 24.5-.065 13.344-10.92 24.271-24.438 24.23-13.407-.04-24.294-10.919-24.293-24.377Zm9.357.04h-.014c0 1.917.008 3.832-.003 5.75-.006 1.088.095 2.154.408 3.205.708 2.388 2.15 4.125 4.463 5.1 1.357.573 2.779.837 4.245.822 4.364-.046 8.73.137 13.092-.096 1.318-.07 2.575-.478 3.732-1.106 2.736-1.483 3.95-3.977 4.059-6.922.152-4.103.045-8.215.053-12.324.002-.844-.03-1.678-.202-2.512-.383-1.86-1.142-3.496-2.612-4.76-1.696-1.459-3.74-2.044-5.889-2.061-4.495-.036-8.992-.158-13.486.071a8.527 8.527 0 0 0-3.746 1.096c-2.702 1.511-3.907 3.958-4.075 6.918-.128 2.266-.026 4.546-.026 6.82h.001Z"/><path fill="#7BBBFE" d="M13.276 25.887c0-3.007-.068-5.137.02-7.26.082-2.008.889-3.701 2.668-4.798.798-.492 1.697-.707 2.627-.772 1.893-.133 3.79-.105 5.685-.107 2.14 0 4.281-.041 6.418.032 1.297.044 2.621-.005 3.86.556 1.797.815 2.722 2.246 3.102 4.13.254 1.258.162 2.52.168 3.78.016 3.2.033 6.398-.006 9.598-.021 1.602-.492 3.097-1.58 4.317-.987 1.108-2.321 1.55-3.752 1.673-2.672.232-5.352.08-8.028.11-1.778.02-3.558.032-5.334-.021-1.496-.046-2.927-.422-4.05-1.471a5.384 5.384 0 0 1-1.697-3.4c-.263-2.408-.039-4.83-.101-6.365v-.002Zm4.369-.855c-.128 4.325 3.61 7.924 7.864 7.947 4.33.024 7.964-3.635 7.971-7.915.008-4.313-3.63-7.93-7.89-7.947-4.33-.017-8.06 3.625-7.945 7.915Zm15.828-6.308c.922.01 1.625-.665 1.627-1.56a1.556 1.556 0 0 0-1.526-1.572c-.922-.014-1.65.66-1.67 1.545-.021.857.692 1.578 1.567 1.587h.002Z"/><path fill="#7BBBFE" d="M25.569 19.967c2.73-.102 5.095 2.339 5.086 5.102-.01 2.723-2.356 5.094-5.125 5.086-2.724-.007-5.097-2.38-5.087-5.126.009-2.711 2.37-5.188 5.127-5.062h-.001Z"/></svg>