<svg xmlns="http://www.w3.org/2000/svg" width="51" height="50" fill="none"><g clip-path="url(#a)"><path fill="#7BBBFE" d="M23.597.095h3.8c.05.117.162.089.252.095 2.44.2 4.798.758 7.078 1.655 11.364 4.47 17.857 16.711 15.171 28.612-3.032 13.45-16.297 21.912-29.712 18.952C10.047 47.174 2.316 38.863.862 28.645c-.078-.551-.056-1.12-.262-1.65V23.1c.134-.067.09-.195.1-.3.106-1.032.251-2.063.48-3.078C3.482 9.465 11.597 1.923 21.99.351c.535-.078 1.087-.044 1.606-.256Zm4.603 21.65c0-.647-.01-1.288 0-1.934.011-.307-.072-.424-.401-.424-1.722.017-3.444.017-5.161 0-.329 0-.407.106-.401.418.083 5.702.01 11.399 0 17.101 0 .352.111.43.44.43 1.655-.017 3.31-.023 4.971 0 .435.005.575-.1.569-.558-.022-3.071-.006-6.137-.011-9.208 0-1.16.228-2.202 1.115-3.055 1.326-1.276 4.252-1.243 4.915 1.276.19.73.262 1.466.268 2.219 0 2.938.011 5.88-.006 8.818 0 .413.123.508.519.502 1.655-.022 3.31-.022 4.971 0 .374 0 .49-.084.49-.48-.016-3.232-.005-6.465-.01-9.693 0-1.204-.14-2.391-.48-3.556-1.198-4.052-6.014-5.942-9.659-3.79-.825.49-1.449 1.187-2.112 1.923l-.017.01Zm-9.263 6.622c0-2.826-.011-5.647.011-8.473 0-.412-.117-.513-.518-.507a214.51 214.51 0 0 1-5.016 0c-.33 0-.446.078-.446.43.011 5.696.011 11.393 0 17.09 0 .345.106.434.44.429 1.639-.017 3.277-.023 4.916 0 .474.01.63-.09.624-.602-.028-2.793-.01-5.586-.01-8.373v.006Zm.385-14.46c.016-1.828-1.316-3.11-3.283-3.149-1.945-.039-3.383 1.277-3.389 3.1 0 1.794 1.366 3.087 3.283 3.098 1.956.012 3.372-1.26 3.389-3.048Z"/></g><defs><clipPath id="a"><path fill="#fff" d="M.5 0h50v50H.5z"/></clipPath></defs></svg>