<svg width="400" height="324" fill="none" xmlns="http://www.w3.org/2000/svg"><path d="M114.23 209.502c-5.243.055-8.27-2.635-10.514-7.067-13.175-26.162-26.5-52.257-39.783-78.365a321.853 321.853 0 0 0-4.054-7.73c-2.406-4.446-3.487-9 .554-12.959 4.351-4.27 9.243-3.703 14.121-.635 6.446 4.054 12.92 8.067 19.392 12.081 34.257 21.243 68.5 42.473 102.784 63.689 4.5 2.784 9.216 5.554 7.703 11.919-1.433 6.04-6.298 7.203-11.825 7.932-25.094 3.379-50.135 7.068-75.202 10.649-1.108.162-2.217.351-3.19.5l.014-.014ZM312.689 125.557c0 9.635-.257 19.27.081 28.891.244 6.852-2.338 10.811-9.054 12.825-24.608 7.432-49.135 15.108-73.662 22.824-4.892 1.541-9.459 1.743-12.878-2.473-3.473-4.284-2.081-8.635.594-13a51959.01 51959.01 0 0 0 73.581-120.19c2.973-4.864 6.595-7.877 12.649-6.12 5.797 1.675 7.149 5.986 7.135 11.432-.094 21.932-.04 43.878-.04 65.811H312.689Z" fill="#D12528"/><path d="M290.892 237.813c-.189 7.649-8.027 12.582-14.203 8.933-17.513-10.338-34.716-21.203-51.946-31.987-3.608-2.256-4.676-6.013-3.594-10.04 1.013-3.77 3.689-6.041 7.635-6.622 10.851-1.594 21.675-3.27 32.54-4.716 4.338-.581 8.108.973 10.189 4.986 6.176 11.892 12.203 23.852 18.217 35.825.689 1.365.946 2.932 1.162 3.635v-.014ZM160.811 243.34c0-5.797.068-11.608-.014-17.405-.081-5.717 1.798-9.96 7.757-11.771 9.622-2.905 19.149-6.081 28.784-8.973 4.513-1.351 9.027-1.31 12.203 2.892 3.108 4.122 2.243 8.095-.433 12.365-9.351 14.973-18.513 30.068-27.567 45.216-3.135 5.244-7.244 8.068-13.311 6.19-5.635-1.744-6.879-6.338-6.662-11.744.216-5.581.054-11.189.054-16.783h-.811v.013Z" fill="#9D2121"/></svg>