<svg width="400" height="387" fill="none" xmlns="http://www.w3.org/2000/svg"><g clip-path="url(#a)"><path d="M182.151 71.3c.913 32.844 37.526 43.925 70.027 104.127 5.997 11.081 13.194 26.389 13.765 46.323.343 11.995-1.828 23.99-6.397 36.271-14.394 38.383-31.187 75.91-47.408 113.608-2.742 6.34-4.227 15.651-14.394 14.622-8.168-.799-8.682-9.367-11.081-14.679C159.76 311.255 134 250.367 106.64 190.221c-15.765-34.614-33.643-68.256-51.235-102.013-10.053-19.306-22.848-36.556-43.581-46.095C3.54 38.343-3.37 32.632 1.714 22.75c3.94-7.654 5.312-18.563 17.992-18.792C78.709 2.701 137.77-.668 196.716.474c3.827.057 13.137.171 15.707 5.255 3.313 6.568-6.625 17.65-10.281 21.533-17.421 19.135-20.22 34.271-19.934 44.096l-.057-.057Z" fill="#303030"/><path d="M204.998 57.82c.457-2.97 1.771-9.88 6.054-17.592 7.312-13.251 18.164-19.477 20.506-20.734 6.968-3.884 14.965-6.054 24.047-6.454 18.906-.8 33.928 6.854 45.295 21.876 2.798 3.713-.286.057 13.708-10.738 7.483-5.769 16.279-9.767 25.646-10.91 14.68-1.77 27.988 1.942 39.469 11.081 5.026 3.999 9.196 9.025 12.395 14.566 11.709 20.22 9.139 37.298 1.085 53.063-6.169 12.109-14.794 22.39-24.39 31.872-19.477 19.134-41.582 34.728-65.115 48.436a2.838 2.838 0 0 1-2.856 0c-14.279-8.396-27.987-17.535-41.01-27.702-37.127-29.131-35.471-33.415-39.412-38.498-5.598-7.197-8.796-14.737-11.481-20.906-3.713-8.567-5.255-17.935-3.884-27.188v-.228l-.057.057Z" fill="#D8463E"/></g><defs><clipPath id="a"><path fill="#fff" transform="translate(0 .246)" d="M0 0h400v386.12H0z"/></clipPath></defs></svg>