<svg xmlns="http://www.w3.org/2000/svg" width="51" height="50" fill="none"><ellipse cx="26.216" cy="25.13" fill="#fff" rx="19.727" ry="18.359"/><path fill="#B24996" d="M3.862 37.448c-.39-.628-.516-1.332-.516-2.048-.007-6.901-.013-13.802.003-20.703.004-1.616.707-2.873 2.129-3.693C11.392 7.59 17.31 4.184 23.223.767c.52-.3 1.097-.441 1.643-.67h1.364c2.747 1.023 5.12 2.739 7.654 4.154 3.79 2.116 7.529 4.322 11.292 6.486.807.465 1.58.96 2.017 1.833-.254.142-.508.283-.76.429-2.128 1.225-4.25 2.46-6.386 3.67-.57.323-1.08.778-1.76.886-.084-.117-.172-.23-.252-.352-2.644-4.038-6.363-6.393-11.165-6.83-4.489-.407-8.442.989-11.651 4.183-3.591 3.573-4.943 7.93-4.207 12.935.259 1.77.914 3.4 1.761 4.962-.204.012-.364.133-.53.228-2.018 1.159-4.028 2.333-6.053 3.48-.77.438-1.495.963-2.328 1.286Z"/><path fill="#782A79" d="M3.862 37.448c.833-.323 1.557-.85 2.328-1.285 2.025-1.149 4.035-2.322 6.054-3.48.165-.096.325-.217.53-.229.088.136.18.27.265.407 4.399 7.03 13.711 9.058 20.633 4.497 1.932-1.273 3.45-2.938 4.655-4.901.306.069.561.24.825.396l2.681 1.558 5.361 3.12c-.353.755-.977 1.238-1.672 1.64-4.347 2.51-8.698 5.014-13.048 7.52-1.501.865-3.01 1.718-4.503 2.597-1.632.962-3.236.937-4.873-.01-5.834-3.376-11.677-6.734-17.516-10.102-.725-.418-1.374-.924-1.72-1.726v-.002Z"/><path fill="#972D87" d="M47.194 37.529c-1.787-1.04-3.573-2.081-5.36-3.12-.894-.52-1.79-1.038-2.682-1.559-.264-.155-.52-.327-.825-.394-.028-.198-.209-.23-.343-.306-.834-.489-1.666-.98-2.508-1.459-1.19-.674-2.342-1.415-3.57-2.023-.99-.577-1.985-1.145-2.969-1.733-1.063-.637-2.175-1.193-3.198-1.9.01-.11.082-.163.171-.215.602-.345 1.2-.695 1.798-1.043l4.176-2.43c2.1-1.199 4.2-2.4 6.3-3.596.086-.048.111-.108.102-.195.68-.108 1.19-.563 1.76-.886 2.136-1.21 4.257-2.445 6.385-3.67.251-.145.506-.285.76-.428.425.606.563 1.307.564 2.018.013 6.974.012 13.946.001 20.92 0 .714-.144 1.412-.563 2.02v-.001Zm-4.632-8.889c.483 0 .725-.235.727-.707 0-.065.006-.13 0-.194-.022-.207.066-.272.275-.289.294-.023.695.17.858-.106.135-.232.042-.6.048-.907 0-.032-.004-.065 0-.097.036-.265-.057-.366-.344-.371-.837-.017-.836-.032-.836-.886v-.146c0-.726 0-.72.748-.74.143-.004.388.097.41-.124.04-.401.02-.81.002-1.214-.006-.157-.166-.12-.273-.125-.275-.011-.629.082-.803-.054-.217-.17-.086-.549-.077-.832.012-.396-.28-.344-.456-.283-.333.115-.833-.355-1.008.267-.08.285.157.695-.113.858-.23.137-.6.04-.908.043-.13.001-.26-.012-.389.003-.268.03-.36-.067-.364-.348-.012-.837-.025-.837-.886-.836-.08 0-.164.01-.243-.001-.256-.034-.328.074-.335.328-.023.798-.034.798-.866.855-.015 0-.032.003-.048 0-.23-.022-.294.12-.257.302.081.384-.2.822.174 1.16.018.016.063 0 .095.004.294.05.698-.16.86.115.137.23.042.599.047.908.003.13-.011.26.003.389.03.27-.07.365-.35.371-.835.02-.835.034-.834.892 0 .065.008.13 0 .194-.038.288.065.428.374.392.144-.017.293.012.437-.005.308-.038.38.097.38.388 0 .798.012.798.824.798.097 0 .195-.008.291.001.241.025.339-.053.348-.32.03-.866.043-.865.902-.865h.195c.655 0 .679 0 .649.677-.018.396.086.58.501.508.08-.013.162-.001.244-.001l-.002-.002Z"/><path fill="#B24996" d="M19.2 28.665c-1.494-2.273-1.27-5.752.519-8.074 3.159-4.1 9.463-3.79 12.166.754l-4.176 2.43c-.598.349-1.197.698-1.798 1.043-.088.05-.161.104-.17.214-.358.017-.628.24-.918.405-1.875 1.072-3.748 2.15-5.621 3.226l-.002.002Z"/><path fill="#782A79" d="M19.2 28.665c1.874-1.075 3.747-2.153 5.622-3.225.29-.167.56-.39.918-.405 1.022.707 2.134 1.263 3.197 1.9.983.587 1.98 1.156 2.97 1.733-2.005 3.863-7.44 4.928-10.904 2.134-.739-.595-1.38-1.273-1.803-2.135v-.002Z"/><path fill="#972D87" d="M41.828 25.104c0 .589-.297.883-.892.883-.58 0-.87-.286-.87-.857 0-.62.313-.93.94-.93.548 0 .822.3.822.904Z"/></svg>
