<svg xmlns="http://www.w3.org/2000/svg" width="51" height="54" fill="none"><path fill="#fff" stroke="#FF8A42" d="m25.75 1.567-.25-.144-.25.144-21.65 12.5-.25.144V39.79l.25.144 21.65 12.5.25.144.25-.144 21.65-12.5.25-.144V14.21l-.25-.144-21.65-12.5Z"/><ellipse cx="28" cy="29.452" fill="#fff" rx="11.5" ry="12"/><path fill="#3D5CAA" d="M27.86 44.73c-.848-.317-1.733-.51-2.602-.753-2.409-.676-4.821-1.341-7.234-2-.216-.06-.285-.168-.302-.38-.279-3.223-.56-6.446-.849-9.67-.332-3.725-.673-7.45-1.008-11.174-.12-1.325-.23-2.651-.358-3.977-.028-.285.017-.39.347-.39 8.098.011 16.196.01 24.294.002.284 0 .376.058.347.356-.207 2.181-.402 4.364-.597 6.546-.172 1.908-.339 3.817-.51 5.726-.197 2.205-.398 4.41-.594 6.615-.173 1.931-.35 3.862-.503 5.795-.028.349-.135.504-.487.6-3.167.86-6.328 1.743-9.491 2.62-.063.017-.143 0-.175.083h-.275l-.003.002Zm.128-23.137v.01h-7.523c-.16 0-.347-.065-.31.244.098.82.194 1.641.23 2.465.017.377.147.433.482.432 3.739-.008 7.477.001 11.215-.002.25 0 .325.033.29.316a40.227 40.227 0 0 0-.222 2.536c-.016.272-.094.338-.358.337-2.623-.008-5.245 0-7.868.002-.977 0-1.956.006-2.933-.005-.229-.003-.285.047-.257.289.093.808.178 1.62.21 2.432.014.363.134.426.464.425 3.37-.009 6.74.002 10.11-.002.25 0 .324.038.295.317-.119 1.15-.207 2.306-.3 3.46-.015.18-.06.283-.26.335-1.043.272-2.08.561-3.12.845a.554.554 0 0 1-.305 0c-1.038-.285-2.076-.57-3.118-.841-.18-.047-.23-.122-.244-.3-.05-.662-.134-1.323-.18-1.986-.015-.225-.086-.285-.305-.281-.85.012-1.702.01-2.553 0-.222-.003-.296.04-.273.285.136 1.439.256 2.878.372 4.317.02.24.127.346.357.41 1.967.536 3.93 1.082 5.895 1.628a.85.85 0 0 0 .472-.008c1.942-.541 3.885-1.084 5.831-1.608.253-.068.354-.17.363-.429.013-.366.072-.73.104-1.095.19-2.181.378-4.364.57-6.545.229-2.57.457-5.139.697-7.707.02-.213-.011-.28-.237-.28-2.53.007-5.06.005-7.592.005h.001Z"/><path fill="#1E1E1E" d="M27.856 9.459c.552 0 1.104.005 1.656-.004.162-.003.24.038.212.208-.002.01 0 .023 0 .034-.024.374.157.861-.073 1.087-.184.18-.675.048-1.03.051-.3.003-.599-.002-.898.002-.092.001-.21-.043-.213.134-.002.175.111.14.208.14.586.001 1.173.008 1.76-.004.19-.004.253.042.25.242-.011.895-.01 1.79 0 2.685.002.19-.043.252-.243.25-1.104-.01-2.209-.01-3.313 0-.19.002-.264-.043-.248-.243.033-.396-.041-.796.042-1.191.378-.005.755-.013 1.133-.017.276-.002.552.002.828-.001.092-.001.21.043.213-.134.003-.175-.11-.14-.207-.14-.587-.002-1.173-.008-1.76.004-.19.004-.253-.042-.25-.242.01-.873.01-1.745 0-2.617-.002-.19.042-.255.243-.25.563.015 1.127.006 1.69.006ZM32.381 14.28c-.552 0-1.104-.008-1.656.005-.196.005-.256-.052-.246-.247.015-.332.013-.665 0-.998-.007-.168.048-.213.212-.21.586.01 1.173.006 1.76 0 .093-.001.243.072.242-.135 0-.207-.15-.134-.244-.135-.575-.005-1.15-.01-1.725.002-.195.005-.25-.05-.247-.246.01-.872.01-1.745 0-2.616-.003-.194.052-.248.246-.247 1.104.01 2.209.01 3.312 0 .195-.002.257.05.247.247-.02.364.123.846-.058 1.065-.189.227-.688.055-1.052.068-.31.01-.62.003-.931.002-.098 0-.175-.002-.175.139 0 .14.078.138.176.138.598-.001 1.196.007 1.793-.005.195-.004.25.05.248.246-.01.895-.01 1.79 0 2.685.001.194-.051.252-.247.247-.551-.013-1.103-.005-1.656-.005h.001ZM21.37 11.824c0-.7.008-1.4-.004-2.1-.003-.2.032-.275.258-.272 1.091.014 2.184.011 3.277.002.199-.002.287.029.272.257-.022.343-.021.69 0 1.031.014.232-.04.317-.292.307-.563-.021-1.127 0-1.69-.01-.17-.003-.245.028-.237.222.017.378.019.757 0 1.135-.01.214.08.238.258.235.575-.01 1.15.002 1.725-.007.17-.003.243.03.235.222-.017.379-.012.758-.001 1.136.005.171-.032.236-.223.235-1.115-.01-2.23-.011-3.346 0-.214.002-.236-.08-.234-.259.01-.711.004-1.423.004-2.134h-.001Z"/></svg>