<svg xmlns="http://www.w3.org/2000/svg" width="51" height="54" fill="none"><path fill="#fff" stroke="#FF8A42" d="m25.75 1.567-.25-.144-.25.144-21.65 12.5-.25.144V39.79l.25.144 21.65 12.5.25.144.25-.144 21.65-12.5.25-.144V14.21l-.25-.144-21.65-12.5Z"/><g clip-path="url(#a)"><path fill="#020507" d="M22.432 11.059c.28.112.58.079.871.114 1.746.213 3.439.598 4.995 1.455.505.278.972.61 1.372 1.028.563.587.856 1.267.854 2.1-.013 4.306-.003 8.614-.013 12.921 0 .29.078.344.352.343 2.99-.01 5.981.01 8.971-.016.986-.009 1.676.74 1.667 1.65-.031 2.914-.012 5.828-.012 8.742 0 .986-.614 1.603-1.597 1.603H26.127c-.984 0-1.594-.61-1.598-1.601-.003-.82-.006-1.638.003-2.456.003-.18-.038-.243-.225-.21-1.6.288-3.21.352-4.828.226-1.634-.128-3.237-.419-4.754-1.062-1.394-.59-2.643-1.36-3.166-2.909V15.094c.268-.828.769-1.483 1.475-1.989 1.575-1.126 3.387-1.582 5.26-1.872.405-.063.821-.039 1.215-.174h2.923Zm3.86 11.17h-.002a6.28 6.28 0 0 0 2.364-1.21c.573-.467.89-1.036.864-1.815-.04-1.167-.019-2.338-.006-3.506.004-.442-.12-.825-.4-1.156-.779-.919-1.821-1.39-2.941-1.728h.001c-.046-.06-.11-.066-.178-.059-1.058-.382-2.163-.535-3.272-.63-1.987-.173-3.963-.064-5.906.405-1.144.276-2.245.67-3.207 1.382-.706.522-1.114 1.167-1.068 2.1.053 1.079.032 2.162.005 3.243-.017.655.229 1.165.686 1.602.234.223.485.42.76.585 1.746 1.04 3.682 1.388 5.669 1.546 1.314.105 2.625.054 3.93-.12.873-.116 1.741-.267 2.57-.587.052.006.104.011.13-.05v-.001Zm-2.805 13.615.862-.136c.112-.018.188-.05.187-.198a209.46 209.46 0 0 1-.003-2.629c0-.12-.02-.174-.163-.143-.275.059-.555.095-.832.14-.088 0-.176-.005-.262.005-2.152.244-4.291.166-6.405-.314-1.533-.348-2.998-.87-4.214-1.923-.028-.024-.06-.05-.104-.008 0 .59.004 1.183-.001 1.778-.003.352.098.668.294.957.353.52.84.89 1.381 1.185 1.713.937 3.585 1.273 5.504 1.41 1.255.09 2.51.05 3.757-.123Zm5.018-9c-.019.004-.04.003-.056.012-1.851 1.063-3.885 1.459-5.978 1.621a19.08 19.08 0 0 1-4.39-.17c-1.355-.209-2.672-.548-3.91-1.158a7.811 7.811 0 0 1-1.617-1.075c0 .722.033 1.394-.01 2.061-.054.863.345 1.467.985 1.965.825.641 1.777 1.019 2.768 1.305 1.955.566 3.958.67 5.975.572.423-.02.853-.03 1.267-.15.662-.028.993-.367.993-1.02 0-.048.003-.096 0-.144a1.588 1.588 0 0 1 .353-1.131c.39-.398.868-.535 1.419-.522.735.018 1.47-.001 2.207-.005.253.004.506-.003.757.014.19.013.247-.046.244-.24-.01-.836-.003-1.672-.006-2.508 0-.048.035-.12-.06-.144-.279.28-.625.479-.94.718v-.001Zm.002-4.495c-.189.097-.376.197-.567.29-2.018.992-4.185 1.313-6.4 1.393a18.699 18.699 0 0 1-3.49-.223c-1.375-.209-2.709-.563-3.96-1.189a7.304 7.304 0 0 1-1.537-1.038c0 .799.01 1.546-.003 2.294-.009.507.178.925.51 1.291.524.583 1.187.966 1.896 1.268 1.991.85 4.093 1.1 6.233 1.087 1.714-.011 3.41-.19 5.042-.765.069-.024.154-.01.202-.084l.014-.004c1.036-.32 1.977-.8 2.684-1.65.26-.314.39-.682.38-1.103-.013-.642-.003-1.284-.003-1.926v-.414c-.341.33-.679.541-1 .772v.001Zm4.506 17.655v-.002h6.807c.498 0 .67-.17.67-.665v-8.65c0-.495-.17-.665-.67-.665l-13.613-.004c-.519 0-.677.162-.677.684v8.621c0 .52.16.682.677.682h6.806v-.001Z"/><path fill="#FDDB01" d="M33.013 40.004h-6.807c-.516 0-.677-.163-.677-.681V30.7c0-.522.158-.684.677-.684 4.538 0 9.076.002 13.613.004.5 0 .67.17.67.665v8.65c0 .495-.171.665-.67.665h-6.806v.002Zm-1.5-4.987H31.5c0 .34-.009.682.002 1.023.05 1.489 1.571 2.427 2.87 1.743.334-.175.542-.257.805.086.163.212.46.175.653-.004a.484.484 0 0 0 .046-.681c-.11-.136-.241-.254-.365-.378-.063-.062-.128-.117-.104-.222.201-.837.094-1.688.094-2.531 0-1.144-.824-1.984-1.938-2.041-1.026-.053-1.926.739-2.045 1.837-.042.385-.007.778-.007 1.168Zm-3.32 2.996v-.002c.214 0 .43.01.642-.002a1.74 1.74 0 0 0 1.672-1.754 1.742 1.742 0 0 0-1.65-1.744c-.533-.027-.836-.311-.825-.774.012-.444.323-.708.851-.715.36-.005.72.008 1.08-.004.351-.012.548-.211.542-.517-.006-.286-.208-.482-.54-.49-.408-.011-.818-.019-1.226.001-.988.05-1.717.798-1.72 1.745-.002.955.71 1.684 1.706 1.748.48.03.787.332.78.768-.006.42-.311.72-.78.735-.389.014-.778-.001-1.167.006-.324.005-.534.204-.535.49 0 .289.207.494.528.508.214.009.428.001.642.001Zm8.797-2.997c0 .798-.002 1.597 0 2.396.002.349.17.58.472.593.525.02 1.052.018 1.577-.002.27-.01.47-.266.459-.516-.012-.262-.214-.459-.5-.471-.223-.01-.448-.02-.671 0-.258.022-.348-.048-.344-.33.017-1.343.008-2.688.007-4.032 0-.135.017-.274-.07-.396-.136-.19-.31-.286-.551-.22-.266.073-.377.265-.378.522-.005.818-.002 1.637-.002 2.455h.001Z"/><path fill="#39A4DB" d="M26.162 22.28c-.829.32-1.697.472-2.57.588a18.571 18.571 0 0 1-3.93.12c-1.986-.16-3.922-.505-5.668-1.547a4.246 4.246 0 0 1-.761-.585c-.458-.437-.703-.947-.687-1.602.028-1.08.049-2.164-.004-3.242-.046-.934.361-1.578 1.068-2.101.962-.71 2.063-1.106 3.207-1.382 1.944-.468 3.918-.578 5.906-.406 1.11.097 2.215.25 3.271.632.047.058.11.068.18.058h-.002c.095.065.184.143.287.194.575.284 1.072.67 1.495 1.149.35.397.564.853.561 1.4-.005 1.325 0 2.65-.002 3.975 0 .126-.003.25-.033.376-.21.908-.872 1.438-1.586 1.932-.197.137-.447.192-.603.39h.002c-.056-.014-.098.007-.13.05l-.002.002Zm-5.239-3.236c1.514-.014 2.902-.154 4.253-.56.814-.244 1.6-.554 2.229-1.15.826-.782.823-1.763.013-2.556-.396-.387-.871-.646-1.377-.855-1.465-.609-3.01-.812-4.578-.866-1.355-.046-2.7.088-4.018.407-.907.22-1.786.52-2.545 1.097-1.104.84-1.131 2.047-.063 2.923.295.243.62.437.967.592 1.666.739 3.432.938 5.119.968Z"/><path fill="#39A4DB" d="M26.231 26.757c-1.632.575-3.328.753-5.042.765-2.14.014-4.241-.238-6.233-1.087-.71-.302-1.372-.685-1.896-1.268-.332-.367-.519-.784-.51-1.291.012-.748.003-1.495.003-2.294.492.427.993.766 1.537 1.038 1.252.626 2.585.98 3.96 1.19 1.157.175 2.32.264 3.49.222 2.215-.08 4.38-.4 6.4-1.392.191-.094.378-.194.567-.29l.005 1.724c0 .36-.107.688-.294.992-.355.58-.876.98-1.441 1.334-.12.075-.273.114-.329.269l-.014.004c-.081-.005-.166-.02-.202.084h-.001Z"/><path fill="#39A4DB" d="M23.539 31.827c-.414.12-.844.13-1.267.15-2.018.097-4.02-.006-5.975-.572-.99-.286-1.943-.664-2.768-1.305-.64-.497-1.039-1.102-.984-1.965.042-.667.008-1.339.008-2.06.52.44 1.044.792 1.618 1.074 1.238.61 2.554.949 3.91 1.158 1.456.225 2.922.284 4.39.17 2.093-.162 4.127-.558 5.978-1.62.015-.01.037-.01.057-.013l.005 2.16c-.735.004-1.472.023-2.207.005-.551-.013-1.029.125-1.42.522-.077.002-.156.014-.231.003-.622-.086-1.171.436-1.116 1.13.03.385.004.774.004 1.162h-.002Z"/><path fill="#39A4DB" d="M23.487 35.844a18.04 18.04 0 0 1-3.757.123c-1.919-.137-3.79-.473-5.504-1.41-.541-.296-1.028-.666-1.381-1.185a1.636 1.636 0 0 1-.294-.957c.006-.595.002-1.188.002-1.777.043-.043.075-.017.103.007 1.216 1.053 2.68 1.576 4.214 1.924 2.113.48 4.253.557 6.405.313.087-.01.174-.003.262-.005l.004 2.685c0 .098.002.196-.054.282Z"/><path fill="#0E77B9" d="M26.29 22.231c.157-.199.406-.254.603-.39.714-.494 1.375-1.024 1.586-1.932.03-.127.033-.25.033-.376.002-1.325-.003-2.65.003-3.975.002-.547-.212-1.002-.562-1.4a4.82 4.82 0 0 0-1.495-1.15c-.102-.05-.191-.127-.287-.193 1.12.337 2.163.81 2.94 1.728.28.33.405.714.4 1.156-.012 1.17-.033 2.339.007 3.506.027.779-.291 1.347-.864 1.815-.701.573-1.49.975-2.364 1.211ZM26.447 26.669c.057-.155.209-.194.33-.269.564-.353 1.085-.753 1.44-1.333.187-.306.295-.633.294-.993l-.004-1.725c.321-.23.659-.442 1-.772v.414c0 .642-.01 1.283.004 1.925.01.422-.12.79-.381 1.104-.707.85-1.648 1.33-2.683 1.65v-.001ZM23.488 35.845c.056-.087.053-.184.053-.282-.002-.896-.003-1.79-.003-2.686.277-.045.557-.08.832-.14.145-.03.164.022.163.143-.003.877-.005 1.754.003 2.63.001.149-.075.18-.187.197l-.861.137ZM28.51 29.005l-.005-2.161c.316-.24.662-.438.941-.718.095.024.06.096.06.144.003.836-.004 1.672.006 2.508.003.194-.056.253-.244.24-.251-.017-.504-.01-.757-.013ZM23.54 31.827c0-.388.026-.777-.005-1.162-.054-.695.494-1.216 1.116-1.13.076.01.155-.002.232-.003a1.592 1.592 0 0 0-.353 1.131c.004.048 0 .097 0 .145 0 .652-.33.991-.992 1.019h.001Z"/><path fill="#0E77B9" d="M26.172 12.815c-.068.01-.131 0-.178-.059.068-.007.132-.002.178.059ZM26.231 26.757c.036-.104.121-.089.202-.084-.047.075-.133.06-.202.084ZM26.161 22.28c.034-.042.075-.064.13-.05-.026.061-.077.056-.13.05Z"/><path fill="#020507" d="M31.513 35.017c0-.39-.035-.783.007-1.168.12-1.098 1.02-1.89 2.046-1.837 1.113.058 1.939.898 1.938 2.041 0 .843.107 1.694-.094 2.53-.025.106.04.16.103.223.124.124.256.242.366.378.177.218.151.499-.046.682-.194.179-.49.215-.653.003-.264-.343-.471-.261-.805-.085-1.298.683-2.821-.256-2.87-1.744-.011-.34-.002-.682-.002-1.023h.01Zm2.976.706c0-.61.02-1.21-.007-1.809-.022-.506-.439-.873-.944-.889-.509-.015-.935.321-1.002.826-.07.541-.019 1.088-.027 1.633-.004.252-.022.507.033.756.167.755 1.122.981 1.558.502-.09-.069-.193-.13-.275-.21-.332-.326-.393-.592-.2-.831.194-.242.438-.24.864.022ZM28.194 38.013c-.214 0-.428.008-.642-.001-.32-.014-.528-.22-.527-.507 0-.287.21-.486.534-.491.39-.006.779.009 1.168-.005.468-.017.774-.315.78-.736.006-.436-.3-.736-.78-.768-.997-.064-1.708-.793-1.706-1.748.003-.947.731-1.694 1.72-1.744.407-.02.817-.014 1.226-.003.331.009.533.205.54.492.006.305-.19.503-.542.516-.36.012-.72 0-1.08.004-.528.006-.84.27-.85.715-.012.463.29.747.823.774.924.046 1.648.81 1.65 1.744a1.738 1.738 0 0 1-1.671 1.754c-.213.011-.428.002-.642.002v.002ZM36.99 35.016c0-.818-.001-1.637.002-2.455.002-.258.113-.45.379-.522.24-.066.414.029.552.22.086.121.068.261.068.396.002 1.344.01 2.688-.006 4.032-.003.281.086.352.344.33.221-.02.447-.01.671 0 .285.012.487.209.5.47.011.25-.189.506-.46.517-.524.02-1.051.022-1.576.002-.304-.012-.47-.244-.471-.593-.004-.799-.001-1.598-.001-2.397h-.001ZM20.923 19.044c-1.687-.03-3.453-.23-5.12-.969a4.206 4.206 0 0 1-.966-.591c-1.07-.876-1.041-2.083.063-2.924.758-.577 1.638-.876 2.545-1.097 1.319-.32 2.663-.454 4.018-.407 1.568.054 3.113.257 4.578.866.506.21.981.468 1.377.855.81.793.813 1.775-.013 2.557-.63.596-1.415.905-2.23 1.15-1.35.406-2.738.545-4.252.559Zm.124-4.995c-1.305.03-2.6.13-3.857.516-.662.203-1.308.444-1.829.923-.402.37-.4.719-.016 1.101.303.3.671.498 1.057.66 1.049.439 2.152.645 3.28.728 1.768.13 3.519.057 5.23-.452.645-.191 1.27-.438 1.78-.897.416-.372.423-.743.036-1.126-.296-.292-.656-.483-1.032-.644-1.486-.633-3.059-.767-4.648-.81l-.001.001Z"/><path fill="#FDDB01" d="M34.489 35.723c-.426-.26-.67-.264-.865-.022-.192.24-.13.505.202.83.083.082.184.143.274.212-.436.479-1.391.253-1.557-.503-.055-.25-.038-.503-.034-.756.009-.544-.044-1.091.027-1.633.066-.504.493-.841 1.002-.825.505.015.922.382.945.889.025.598.006 1.198.006 1.81v-.002Z"/><path fill="#0E77B9" d="M21.047 14.05c1.589.042 3.162.176 4.648.809.378.16.738.352 1.032.644.387.383.38.753-.035 1.126-.51.459-1.136.705-1.78.897-1.712.509-3.463.582-5.23.452-1.128-.083-2.232-.29-3.28-.729-.387-.161-.755-.358-1.057-.66-.384-.381-.387-.73.015-1.1.521-.48 1.167-.72 1.83-.923 1.257-.386 2.552-.486 3.856-.517h.001Z"/></g><defs><clipPath id="a"><path fill="#fff" d="M11.5 11h30v30h-30z"/></clipPath></defs></svg>