<svg xmlns="http://www.w3.org/2000/svg" width="51" height="54" fill="none"><path fill="#fff" stroke="#FF8A42" d="m25.75 1.567-.25-.144-.25.144-21.65 12.5-.25.144V39.79l.25.144 21.65 12.5.25.144.25-.144 21.65-12.5.25-.144V14.21l-.25-.144-21.65-12.5Z"/><path fill="#F05129" d="M24.862 46.323c-.927-.334-1.889-.55-2.836-.816a786.713 786.713 0 0 0-6.968-1.922c-.245-.066-.32-.178-.341-.418-.265-3.052-.542-6.102-.813-9.154-.24-2.709-.474-5.418-.716-8.126-.219-2.446-.442-4.89-.666-7.336-.051-.562-.057-.562.489-.562 8.03 0 16.058.001 24.088-.008.33 0 .429.062.395.408-.236 2.444-.452 4.89-.67 7.336-.196 2.183-.384 4.366-.579 6.548-.218 2.446-.442 4.891-.661 7.337-.105 1.177-.213 2.354-.302 3.533-.019.256-.1.368-.36.44-3.22.879-6.436 1.775-9.654 2.665-.051.014-.119-.002-.131.077h-.276v-.002Zm.136-23.136v.007h-.414c-2.38 0-4.761 0-7.143-.002-.185 0-.33-.02-.299.26.09.786.15 1.576.222 2.365.198 2.159.406 4.317.585 6.477.026.315.127.367.41.366 3.347-.005 6.695.003 10.042.007.08 0 .161.007.241 0 .177-.017.2.055.185.222a229.596 229.596 0 0 0-.31 3.566c-.017.21-.107.293-.3.344-1.02.265-2.04.539-3.057.813a.615.615 0 0 1-.337-.004c-1.029-.278-2.059-.554-3.092-.82-.183-.047-.252-.122-.264-.32-.044-.664-.125-1.325-.174-1.989-.014-.2-.067-.272-.283-.27-.874.015-1.748.011-2.622.003-.193-.002-.257.04-.237.25.137 1.461.264 2.925.383 4.388.018.217.113.31.317.366 1.967.54 3.933 1.088 5.898 1.637a.83.83 0 0 0 .47 0c1.954-.545 3.907-1.091 5.866-1.62.255-.07.359-.17.353-.434-.005-.263.04-.526.065-.788l.736-8.053c.04-.439.034-.44-.415-.44-3.543.002-7.086 0-10.629.01-.251 0-.35-.048-.37-.325-.055-.823-.144-1.645-.227-2.466-.041-.41-.047-.41.372-.41 3.75.002 7.5.002 11.25.011.257 0 .358-.057.376-.333.056-.846.13-1.692.225-2.536.028-.248-.042-.287-.264-.287-2.52.006-5.039.004-7.558.004v.001Z"/><path fill="#0A0909" d="M27.929 12.707c.31-.51.604-.974.878-1.449.094-.16.198-.218.383-.21.39.015.782.011 1.172 0 .18-.005.263.024.261.236a352.44 352.44 0 0 0 0 4.302c0 .192-.067.228-.239.222a15.587 15.587 0 0 0-1.138.001c-.207.01-.243-.072-.24-.257.01-.651.003-1.303.003-2.058l-1.096 1.67c-.362-.553-.71-1.08-1.112-1.695 0 .754-.007 1.402.005 2.05.003.206-.026.309-.273.292-.355-.024-.712-.012-1.068-.004-.163.004-.246-.02-.245-.219.008-1.445.005-2.89.001-4.336 0-.141.03-.223.19-.202.021.003.045 0 .069 0 .47.003 1.021-.143 1.39.05.35.186.512.728.755 1.114.098.154.192.31.305.491l-.001.002ZM14.795 13.433c0-.711.007-1.424-.004-2.135-.003-.194.05-.259.248-.25a10.5 10.5 0 0 0 1.103-.002c.248-.016.283.089.275.296-.014.344.007.69-.007 1.032-.009.201.063.26.257.25.377-.02.868.12 1.102-.066.248-.198.082-.71.07-1.082-.011-.331.055-.476.422-.433.318.038.644.014.966.005.162-.004.247.018.245.218a402.325 402.325 0 0 0 0 4.339c0 .181-.075.205-.225.202-.39-.007-.783-.012-1.173.002-.189.007-.233-.063-.228-.237.012-.367-.006-.736.008-1.102.007-.188-.036-.265-.242-.254-.31.018-.622.022-.931 0-.232-.018-.261.081-.254.275.014.367-.003.735.008 1.102.004.164-.045.22-.212.215a19.59 19.59 0 0 0-1.207.001c-.196.008-.223-.073-.222-.242.008-.711.004-1.424.004-2.135h-.003ZM22.348 11.051c.655 0 1.31.008 1.964-.004.196-.004.26.052.251.249-.015.366-.016.733 0 1.1.01.203-.066.252-.255.244-.31-.014-.62.008-.93-.009-.197-.01-.247.055-.245.247.01.883-.003 1.765.01 2.648.002.22-.049.298-.28.284a8.964 8.964 0 0 0-1.033 0c-.218.011-.291-.043-.287-.276.016-.848-.005-1.696.013-2.545.006-.272-.04-.392-.345-.36-.284.03-.573-.002-.86.01-.167.008-.219-.044-.213-.211a16.02 16.02 0 0 0 0-1.135c-.008-.197.052-.25.248-.246.655.011 1.31.004 1.964.004h-.002ZM31.391 13.396c0-.7.007-1.399-.004-2.098-.003-.192.043-.26.244-.25.355.016.713.019 1.068 0 .236-.014.312.047.307.296-.017.836.005 1.674-.013 2.51-.007.284.039.4.362.38.55-.033 1.103-.002 1.654-.012.177-.004.242.045.237.229a16.64 16.64 0 0 0 0 1.134c.007.188-.061.226-.235.225a245.34 245.34 0 0 0-3.377 0c-.195.002-.251-.05-.247-.248.012-.722.004-1.444.004-2.167v.001Z"/></svg>