<svg xmlns="http://www.w3.org/2000/svg" width="51" height="54" fill="none"><path fill="#777BB3" stroke="#FF8A42" d="m25.75 1.567-.25-.144-.25.144-21.65 12.5-.25.144V39.79l.25.144 21.65 12.5.25.144.25-.144 21.65-12.5.25-.144V14.21l-.25-.144-21.65-12.5Z"/><path fill="#000" stroke="#fff" d="M16.094 21.516H10.43a.293.293 0 0 0-.293.195L7.5 35.48c0 .292.293.292.293.292h2.93c.293 0 .293-.195.293-.195l.683-3.418h2.637c4.101 0 6.152-2.734 6.64-5.176.489-2.441.098-5.468-4.882-5.468Zm1.27 5.273c-.391 1.855-1.66 2.637-3.419 2.637h-1.758l1.075-5.176h1.758c2.636 0 2.539.977 2.343 2.539ZM27.813 32.16c-.391 0-.293-.39-.293-.39l1.171-5.957c0-.782.586-1.563-1.757-1.465h-1.758l-1.465 7.617s0 .293-.39.293h-2.833c-.293 0-.293-.293-.293-.293l2.735-13.77s0-.195.39-.195h2.93c.293 0 .195.293.195.293l-.683 3.32H28.3c3.515 0 4.394 1.66 4.101 3.614l-1.27 6.738s0 .293-.488.293l-2.831-.098ZM39.434 21.516H33.77a.293.293 0 0 0-.293.195L30.84 35.48c0 .292.293.292.293.292h2.93c.292 0 .292-.195.292-.195l.684-3.418h2.637c4.101 0 6.152-2.734 6.64-5.176.489-2.441.098-5.468-4.882-5.468Zm1.27 5.273c-.392 1.855-1.661 2.637-3.419 2.637h-1.758l1.075-5.176h1.757c2.637 0 2.54.977 2.344 2.539Z"/></svg>