<svg xmlns="http://www.w3.org/2000/svg" width="51" height="50" fill="none"><g fill="#7BBBFE" clip-path="url(#a)"><path d="M50.5 23.09v3.898c-.12.048-.088.158-.096.248a26.943 26.943 0 0 1-.477 3.123C47.272 42.947 35.019 51.554 22.28 49.764c-5.392-.757-10.118-2.969-13.979-6.82-6.41-6.394-8.838-14.14-7.053-23.006C3.334 9.586 11.578 1.95 21.96.362c.564-.086 1.148-.054 1.692-.266h3.794c.03.103.118.086.196.093 3.667.29 7.117 1.317 10.285 3.194 6.891 4.083 11.004 10.089 12.306 18.014.093.564.053 1.15.267 1.694ZM25.592 34.407v.004c2.674 0 5.349.015 8.022-.004 2.905-.022 5.044-2.078 5.089-4.944.045-2.953.046-5.91 0-8.862-.046-2.794-2.129-4.897-4.906-4.918-5.462-.04-10.924-.039-16.385 0-2.78.02-4.874 2.124-4.917 4.906-.047 2.97-.05 5.942 0 8.91.046 2.782 2.144 4.856 4.929 4.899 2.723.041 5.445.009 8.168.009Z"/><path d="M22.16 29.061v-8.037l6.899 4.014-6.9 4.023Z"/></g><defs><clipPath id="a"><path fill="#fff" d="M.5 0h50v50H.5z"/></clipPath></defs></svg>