<svg xmlns="http://www.w3.org/2000/svg" width="51" height="54" fill="none"><path fill="#782A79" stroke="#FF8A42" d="m25.75 1.567-.25-.144-.25.144-21.65 12.5-.25.144V39.79l.25.144 21.65 12.5.25.144.25-.144 21.65-12.5.25-.144V14.21l-.25-.144-21.65-12.5Z"/><path fill="#fff" d="M10.82 32.42c0 .6-.193 1.06-.58 1.38-.373.307-.8.46-1.28.46a2.04 2.04 0 0 1-1.3-.46c-.373-.32-.56-.78-.56-1.38 0-.6.187-1.053.56-1.36.387-.32.82-.48 1.3-.48.48 0 .907.16 1.28.48.387.307.58.76.58 1.36Zm2.002-8.58c.507-.147 1.16-.28 1.96-.4.8-.133 1.64-.2 2.52-.2.893 0 1.633.12 2.22.36.6.227 1.073.553 1.42.98.346.427.593.933.74 1.52.146.587.22 1.24.22 1.96V34h-2.98v-5.58c0-.96-.127-1.64-.38-2.04-.254-.4-.727-.6-1.42-.6-.213 0-.44.013-.68.04-.24.013-.454.033-.64.06V34h-2.98V23.84Zm11.277 4.98c0-.933.14-1.747.42-2.44.294-.707.674-1.293 1.14-1.76.467-.467 1-.82 1.6-1.06.614-.24 1.24-.36 1.88-.36 1.494 0 2.674.46 3.54 1.38.867.907 1.3 2.247 1.3 4.02 0 .173-.006.367-.02.58-.013.2-.026.38-.04.54h-6.76c.067.613.354 1.1.86 1.46.507.36 1.187.54 2.04.54.547 0 1.08-.047 1.6-.14.534-.107.967-.233 1.3-.38l.4 2.42c-.16.08-.373.16-.64.24-.266.08-.566.147-.9.2-.32.067-.666.12-1.04.16-.373.04-.746.06-1.12.06-.946 0-1.773-.14-2.48-.42-.693-.28-1.273-.66-1.74-1.14a4.84 4.84 0 0 1-1.02-1.74 7.051 7.051 0 0 1-.32-2.16Zm7-1.14c-.013-.253-.06-.5-.14-.74a1.649 1.649 0 0 0-.34-.64 1.675 1.675 0 0 0-.58-.46c-.226-.12-.513-.18-.86-.18-.333 0-.62.06-.86.18a1.67 1.67 0 0 0-.6.44c-.16.187-.286.407-.38.66-.08.24-.14.487-.18.74h3.94Zm5.08-6.82 2.98-.48v3.1h3.58v2.48h-3.58v3.7c0 .627.107 1.127.32 1.5.227.373.673.56 1.34.56.32 0 .647-.027.98-.08a5.63 5.63 0 0 0 .94-.26l.42 2.32c-.36.147-.76.273-1.2.38-.44.107-.98.16-1.62.16-.813 0-1.487-.107-2.02-.32-.533-.227-.96-.533-1.28-.92-.32-.4-.547-.88-.68-1.44-.12-.56-.18-1.18-.18-1.86v-8.84Z"/></svg>