<svg xmlns="http://www.w3.org/2000/svg" width="51" height="54" fill="none"><path fill="#fff" stroke="#FF8A42" d="m25.75 1.567-.25-.144-.25.144-21.65 12.5-.25.144V39.79l.25.144 21.65 12.5.25.144.25-.144 21.65-12.5.25-.144V14.21l-.25-.144-21.65-12.5Z"/><g clip-path="url(#a)"><path fill="#073042" d="M21.74 15.79H13.52c-.801.002-1.569.266-2.134.733-.566.467-.884 1.1-.885 1.76-.023.64.264 1.261.796 1.727.533.466 1.268.739 2.044.759H21.829l-.088-4.978Z"/><path fill="#4285F4" d="M40.47 37.964H13.51c-.799-.004-1.563-.268-2.126-.733-.564-.466-.881-1.096-.884-1.754V18.27c-.002.327.074.652.225.956.15.303.371.579.651.812.28.233.613.418.98.545.366.127.76.193 1.157.194.067 0 .134 0 .2-.004h22.364s4.394-.315 4.394 2.416v14.775Z"/><path fill="#000" d="M26.233 25.995c-.356.006-.7.105-.983.282-.283.178-.49.426-.59.707-.1.282-.088.582.034.858.121.275.347.512.643.675.296.162.647.243 1.002.23.356-.014.697-.12.973-.305.277-.184.475-.436.566-.72a1.15 1.15 0 0 0-.061-.856 1.476 1.476 0 0 0-.628-.638 1.947 1.947 0 0 0-.956-.233Z"/><path fill="#3870B2" d="M27.893 29.15c.451-.278.786-.665.957-1.107.172-.442.173-.917.002-1.36-.17-.442-.504-.829-.954-1.108a3.1 3.1 0 0 0-1.557-.448h.088c.159-.013.319-.013.478 0v-1.385a.38.38 0 0 0-.062-.225.49.49 0 0 0-.192-.169.615.615 0 0 0-.537 0 .49.49 0 0 0-.192.169.379.379 0 0 0-.062.225v1.409c-.53.07-1.024.266-1.419.566-.395.3-.674.69-.8 1.12-.128.43-.098.88.085 1.297.183.416.51.778.943 1.04L19.7 37.933h3.242l2.293-4.025c.097-.166.25-.307.44-.405.19-.098.41-.15.634-.15.223 0 .442.051.63.15.19.098.34.239.435.405l2.362 4.025h3.284l-5.127-8.782Zm-1.66-.394c-.334.001-.66-.08-.94-.232a1.489 1.489 0 0 1-.623-.623 1.164 1.164 0 0 1-.098-.804c.065-.27.226-.519.462-.713.236-.195.538-.327.865-.38.328-.054.667-.026.976.08.308.105.571.284.756.514.185.23.283.498.282.774 0 .367-.178.719-.492.979-.315.26-.742.405-1.188.405Z"/><path fill="#fff" d="M19.964 17.015h11.533v1.746H19.964v-1.746Z"/><path fill="#073042" d="M25.335 25.995c.386.003.758.115 1.055.318.297.204.499.485.572.797.073.313.012.636-.171.916-.183.28-.479.498-.836.618-.356.12-.753.136-1.122.042a1.679 1.679 0 0 1-.9-.553 1.194 1.194 0 0 1-.271-.899c.038-.316.208-.612.481-.836a1.907 1.907 0 0 1 1.192-.402Zm.66-.804v-1.45a.379.379 0 0 0-.062-.226.49.49 0 0 0-.192-.168.616.616 0 0 0-.537 0 .492.492 0 0 0-.192.168.38.38 0 0 0-.062.226v1.409c-.53.069-1.024.266-1.419.566-.395.3-.673.689-.8 1.119-.128.43-.098.881.085 1.297.183.416.51.779.943 1.041l-6.236 11.068a1.042 1.042 0 0 0 .107 1.231c.15.178.356.32.594.411.238.092.501.13.763.113.262-.021.513-.1.726-.227.213-.127.38-.3.485-.498l4.157-7.364c.098-.166.251-.306.441-.404a1.396 1.396 0 0 1 1.264-.001c.189.098.339.239.434.405l4.267 7.324c.085.143.203.272.348.378.145.106.314.188.497.24a1.77 1.77 0 0 0 1.127-.055c.175-.07.33-.167.46-.286a1.19 1.19 0 0 0 .29-.41 1.02 1.02 0 0 0-.066-.93L26.994 29.15c.396-.26.696-.605.869-.997a1.89 1.89 0 0 0 .11-1.224 2.158 2.158 0 0 0-.682-1.092 2.899 2.899 0 0 0-1.274-.638"/><path fill="#3DDC84" d="M29.826 18.551a.908.908 0 0 1-.441-.103.694.694 0 0 1-.296-.29.54.54 0 0 1-.046-.377.62.62 0 0 1 .218-.333.855.855 0 0 1 .404-.176.948.948 0 0 1 .454.037.779.779 0 0 1 .354.239.546.546 0 0 1 .075.606.653.653 0 0 1-.169.209.81.81 0 0 1-.254.14.927.927 0 0 1-.299.048Zm-8.68 0a.906.906 0 0 1-.439-.106.692.692 0 0 1-.291-.29.54.54 0 0 1-.045-.375.62.62 0 0 1 .217-.332.78.78 0 0 1 .239-.161.952.952 0 0 1 .603-.049c.1.025.192.066.272.12.08.054.147.12.196.196a.544.544 0 0 1 .06.497.625.625 0 0 1-.146.225.725.725 0 0 1-.11.09.8.8 0 0 1-.256.139.916.916 0 0 1-.3.046Zm8.964-3.903 1.562-2.235a.229.229 0 0 0 .006-.19.292.292 0 0 0-.146-.148.394.394 0 0 0-.228-.033.352.352 0 0 0-.198.097l-1.582 2.267a11.65 11.65 0 0 0-4.032-.712c-1.39 0-2.764.243-4.032.712l-1.594-2.27a.31.31 0 0 0-.12-.099.389.389 0 0 0-.163-.037.418.418 0 0 0-.163.04.342.342 0 0 0-.123.097.237.237 0 0 0-.045.136c0 .048.016.096.045.137l1.572 2.236c-1.354.612-2.502 1.493-3.34 2.562-.838 1.07-1.339 2.295-1.458 3.565h18.847c-.12-1.27-.623-2.495-1.463-3.564-.84-1.07-1.989-1.95-3.345-2.56Z"/><path fill="#073042" d="M37.766 25.545h-1.242a.175.175 0 0 0-.111.038.12.12 0 0 0-.046.091V41.81c0 .033.015.065.042.089a.172.172 0 0 0 .105.04h1.279c.718-.002 1.406-.238 1.913-.657.507-.419.792-.987.792-1.578V23.308c0 .593-.286 1.161-.795 1.58-.508.42-1.198.655-1.918.655l-.02.002Z"/></g><defs><clipPath id="a"><path fill="#fff" d="M10.5 12h30v30h-30z"/></clipPath></defs></svg>