<svg xmlns="http://www.w3.org/2000/svg" width="51" height="54" fill="none"><path fill="#fff" stroke="#FF8A42" d="m25.75 1.567-.25-.144-.25.144-21.65 12.5-.25.144V39.79l.25.144 21.65 12.5.25.144.25-.144 21.65-12.5.25-.144V14.21l-.25-.144-21.65-12.5Z"/><path fill="#DD0031" fill-rule="evenodd" d="m25.5 8-20 6.64 3.049 24.62L25.5 48l16.951-8.74L45.5 14.64 25.5 8Z" clip-rule="evenodd"/><path fill="#C3002F" fill-rule="evenodd" d="M25.5 8v4.44-.02V48l16.951-8.74L45.5 14.64 25.5 8Z" clip-rule="evenodd"/><path fill="#fff" fill-rule="evenodd" d="m25.5 12.42-12.504 26.1h4.661l2.514-5.839h10.612l2.514 5.84h4.661L25.5 12.42Zm3.654 16.66H21.85l3.65-8.18 3.654 8.18Z" clip-rule="evenodd"/></svg>