<svg xmlns="http://www.w3.org/2000/svg" width="51" height="54" fill="none"><path fill="#fff" stroke="#FF8A42" d="m25.75 1.567-.25-.144-.25.144-21.65 12.5-.25.144V39.79l.25.144 21.65 12.5.25.144.25-.144 21.65-12.5.25-.144V14.21l-.25-.144-21.65-12.5Z"/><g clip-path="url(#a)"><path fill="#7F9DD1" d="M23.447 45c-.39-.173-.813-.106-1.216-.132a49.398 49.398 0 0 1-6.16-.803c-.076-.014-.15-.037-.226-.053-.196-.042-.358-.133-.338-.356.022-.245.207-.301.425-.294 1.672.05 3.345.115 5.02.14 1.688.025 3.377.03 5.065.006 1.946-.026 3.892-.066 5.826-.303 2.049-.252 4.015-.789 5.818-1.83.27-.157.525-.333.763-.538.135-.117.282-.257.481-.122.2.137.171.34.108.528-.24.717-.725 1.245-1.328 1.676-1.216.868-2.617 1.224-4.061 1.457-1.728.28-3.464.48-5.214.554-.044.002-.086.045-.129.07h-4.834Z"/><path fill="#D93E27" d="M29.781 8.89c.02 1.666-.69 3.022-1.78 4.223-1.166 1.284-2.548 2.323-3.867 3.433-.397.333-.769.697-1.157 1.042-.856.763-1.077 1.708-.896 2.816.314 1.934.97 3.75 1.791 5.517.06.129.132.252.185.385.064.163.092.331-.065.464-.164.138-.326.067-.457-.043-1.782-1.5-3.377-3.151-4.216-5.386-.615-1.64-.365-3.165.596-4.615.874-1.319 2.013-2.362 3.268-3.297 1.072-.796 2.2-1.516 3.21-2.396 1.106-.963 1.526-2.245 1.731-3.63a5.905 5.905 0 0 0 0-1.704c-.03-.215-.041-.438.216-.515.232-.069.347.106.451.282.621 1.058.98 2.192.991 3.426V8.89Z"/><path fill="#7F9DD1" d="M12.79 39.985c.605.352 1.275.453 1.927.568 1.853.325 3.722.49 5.601.579 2.053.095 4.103.092 6.15-.035 2.898-.179 5.783-.489 8.602-1.233.364-.097.724-.203 1.063-.373.213-.106.333-.247.22-.496-.075-.162-.052-.319.094-.415.157-.102.319-.059.468.053.65.49.7 1.235.121 1.807-.408.405-.936.609-1.45.811-1.38.545-2.823.86-4.283 1.102-2.461.406-4.939.567-7.43.652-1.964.066-3.922.02-5.879-.054-2.006-.075-4.012-.22-5.964-.753-.627-.172-1.238-.395-1.722-.857-.777-.74-.645-1.628.303-2.116.965-.498 2.021-.632 3.076-.756.669-.08 1.342-.114 2.014-.163.236-.017.518-.045.548.277.029.309-.25.352-.48.398-.84.172-1.673.358-2.468.688-.179.074-.361.139-.51.317ZM16.411 28.534c.937.263 1.845.294 2.747.353 2.114.14 4.23.1 6.345-.003 1.98-.096 3.959-.225 5.91-.614.253-.05.508-.1.758-.168.214-.058.401-.035.504.167.112.222-.045.36-.211.479-.639.455-1.344.792-2.074 1.06-1.787.65-3.633 1.023-5.529 1.196-1.684.154-3.37.174-5.056.133-1.595-.04-3.185-.175-4.727-.622-.637-.186-1.259-.422-1.733-.918-.566-.59-.482-1.374.192-1.837.751-.515 1.624-.663 2.493-.81 1.14-.192 2.292-.26 3.45-.25.213.002.446-.017.49.258.05.3-.194.357-.411.408-.86.2-1.714.413-2.525.769-.207.09-.437.155-.622.4Z"/><path fill="#D93E27" d="M26.021 27.875c.015-.04.048-.15.095-.255a7.046 7.046 0 0 0 .468-1.555c.1-.523-.017-.965-.343-1.377-.619-.78-1.284-1.54-1.61-2.502-.477-1.407-.743-2.816.21-4.158.509-.716 1.15-1.3 1.852-1.816 1.555-1.14 3.27-1.99 5.047-2.725.21-.086.405-.133.535.11.125.23-.038.362-.193.485-1.13.893-2.255 1.79-3.28 2.805-.407.401-.795.818-1.114 1.295-.554.835-.63 1.676-.065 2.538.27.412.544.82.793 1.245 1.064 1.81.911 3.358-.476 4.95-.41.471-.855.904-1.359 1.275-.134.098-.28.151-.433.061-.107-.063-.15-.173-.128-.375h.002Z"/><path fill="#7F9DD1" d="M24.058 39.31c-1.874-.102-3.64-.154-5.342-.686-.462-.145-.898-.332-1.275-.646-.794-.66-.713-1.648.198-2.131.45-.24.945-.359 1.462-.346.335.009.474.182.327.469-.12.232-.055.27.16.326.845.22 1.71.28 2.573.377 2.066.231 4.084-.124 6.099-.5.261-.048.472-.028.698.115.547.35 1.107.676 1.661 1.014.166.102.344.2.319.443-.024.228-.212.269-.38.337-1.464.593-2.99.919-4.557 1.096-.687.078-1.377 0-1.942.13l-.001.002ZM22.327 34.97c-1.76-.001-3.494-.174-5.16-.789a3.638 3.638 0 0 1-.956-.515c-.567-.437-.574-1.093-.023-1.551.568-.473 1.275-.617 1.961-.803.172-.047.306.056.364.222.054.158-.03.271-.153.366-.156.12-.478.173-.409.394.067.217.386.214.61.253 2.033.353 4.075.34 6.125.177a31.933 31.933 0 0 0 4.753-.75.58.58 0 0 1 .508.106c.435.307.87.612 1.307.916.174.12.36.242.3.492-.054.234-.275.257-.46.296-1.444.305-2.889.602-4.353.808-1.465.205-2.93.383-4.413.378ZM36.438 26.159c1.459-.008 2.542.953 2.91 2.808.3 1.504-.405 2.592-1.513 3.46-1.393 1.09-3.027 1.674-4.73 2.087-.193.046-.346.005-.427-.166-.094-.198.014-.345.178-.46 1.053-.738 2.063-1.528 2.927-2.487.374-.415.721-.851.939-1.373.29-.694.08-1.378-.546-1.8-.759-.51-1.631-.638-2.512-.722-.212-.02-.396-.055-.441-.292-.043-.229.136-.321.303-.394.846-.374 1.714-.668 2.91-.661h.002Z"/></g><defs><clipPath id="a"><path fill="#fff" d="M4.5 5h40v40h-40z"/></clipPath></defs></svg>