<svg xmlns="http://www.w3.org/2000/svg" width="51" height="54" fill="none"><path fill="#FEDF00" stroke="#FF8A42" d="m25.75 1.567-.25-.144-.25.144-21.65 12.5-.25.144V39.79l.25.144 21.65 12.5.25.144.25-.144 21.65-12.5.25-.144V14.21l-.25-.144-21.65-12.5Z"/><g clip-path="url(#a)"><path fill="#FEDF00" d="M40.495 11.117c0 9.872-.001 19.744.005 29.615 0 .219-.05.268-.268.268-9.872-.006-19.744-.005-29.615-.005 0-9.841.001-19.682-.007-29.523 0-.293.069-.362.362-.362 9.841.008 19.682.007 29.523.007ZM33.526 38.66c.43.006.854-.048 1.275-.118 2.423-.407 3.775-2.37 3.288-4.776-.22-1.084-.868-1.86-1.767-2.46-.885-.59-1.877-.96-2.837-1.394-.398-.18-.8-.358-1.114-.674-.367-.368-.431-.817-.288-1.293.14-.464.492-.707.958-.784.88-.146 1.528.202 1.986.948.065.106.096.256.294.124.62-.415 1.253-.813 1.885-1.211.111-.07.14-.124.062-.247-.386-.618-.849-1.165-1.49-1.527-1.111-.627-2.313-.716-3.529-.458-1.457.31-2.522 1.146-2.879 2.635-.368 1.541-.03 2.928 1.216 4.009.699.606 1.536.969 2.374 1.331.62.27 1.266.496 1.814.906.905.676.75 1.87-.294 2.3-.605.247-1.23.24-1.857.084-.802-.199-1.362-.718-1.795-1.39-.103-.16-.168-.207-.351-.095-.62.38-1.25.745-1.885 1.096-.182.1-.164.18-.078.328.215.372.463.717.764 1.025 1.165 1.194 2.63 1.618 4.247 1.641h.001Zm-6.632-8.722c0-1.613-.004-3.226.006-4.84.001-.217-.052-.278-.271-.273-.749.015-1.497.016-2.246 0-.237-.005-.306.05-.305.298.01 3.004.007 6.007.004 9.01 0 .272-.011.545-.049.814-.063.46-.235.863-.696 1.067a1.73 1.73 0 0 1-2.065-.531 4.75 4.75 0 0 1-.395-.609c-.082-.152-.148-.156-.285-.071-.644.398-1.291.788-1.942 1.173-.139.081-.159.152-.082.293.43.798 1.008 1.458 1.828 1.859 1.369.67 2.784.704 4.206.19 1.001-.362 1.655-1.086 2.007-2.086a5.336 5.336 0 0 0 .284-1.773c.005-1.507.001-3.013.002-4.52Z"/><path fill="#060601" d="M33.527 38.66c-1.618-.023-3.082-.446-4.248-1.641a5.174 5.174 0 0 1-.764-1.025c-.085-.148-.103-.227.078-.328a49.78 49.78 0 0 0 1.886-1.096c.183-.112.248-.065.351.095.434.672.993 1.19 1.795 1.39.626.156 1.252.164 1.857-.085 1.044-.429 1.199-1.623.294-2.299-.548-.41-1.194-.636-1.815-.906-.837-.363-1.674-.725-2.373-1.331-1.245-1.08-1.585-2.468-1.216-4.009.357-1.489 1.422-2.326 2.88-2.635 1.215-.258 2.417-.168 3.528.458.641.361 1.103.908 1.49 1.527.077.123.048.177-.062.247-.632.398-1.265.796-1.885 1.21-.197.132-.23-.017-.294-.122-.457-.747-1.106-1.096-1.987-.95-.465.078-.817.321-.957.785-.143.476-.08.925.288 1.293.315.316.716.494 1.114.674.96.435 1.952.804 2.837 1.394.899.6 1.547 1.376 1.766 2.46.488 2.407-.864 4.369-3.287 4.776-.422.07-.845.124-1.275.118ZM26.895 29.938c0 1.507.003 3.014-.002 4.52a5.341 5.341 0 0 1-.284 1.773c-.352 1-1.005 1.725-2.007 2.086-1.422.514-2.837.481-4.206-.19-.82-.401-1.398-1.06-1.828-1.858-.076-.142-.056-.212.082-.294.65-.384 1.299-.775 1.942-1.173.137-.085.204-.08.285.071.115.213.25.416.395.609.474.63 1.345.851 2.066.532.46-.205.633-.608.696-1.068.036-.268.047-.541.048-.813.003-3.004.005-6.007-.004-9.01 0-.25.069-.304.306-.299.748.017 1.497.015 2.245 0 .22-.004.273.056.271.273-.01 1.614-.005 3.227-.005 4.84v.001Z"/></g><defs><clipPath id="a"><path fill="#fff" d="M10.5 11h30v30h-30z"/></clipPath></defs></svg>